<?xml version="1.0" encoding="UTF-8"?>
<!-- Generator: Adobe Illustrator 19.2.0, SVG Export Plug-In . SVG Version: 6.00 Build 0)  -->
<svg version="1.1" id="Слой_1" xmlns="http://www.w3.org/2000/svg" xmlns:xlink="http://www.w3.org/1999/xlink" x="0px" y="0px" viewBox="0 0 540 480" style="enable-background:new 0 0 540 480;" xml:space="preserve">
<style type="text/css">
	.st0{fill:#D1CCCC;}
	.st1{fill:#465585;}
	.st2{fill:#D65888;}
	.st3{fill:#BA546A;}
	.st4{fill:#4B7798;}
	.st5{fill:#A44E46;}
	.st6{fill:#FFFFFF;}
	.st7{fill:#45A4D1;}
	.st8{fill:#1450A1;}
	.st9{fill:#F0682F;}
	.st10{fill:url(#SVGID_1_);}
	.st11{fill:#C8DAEA;}
	.st12{fill:#A9C9DD;}
	.st13{fill:url(#SVGID_2_);}
	.st14{fill:url(#SVGID_3_);}
	.st15{fill:url(#SVGID_4_);}
	.st16{fill:#B5B0B0;}
	.st17{fill:#4C4545;}
	.st18{fill:#EA2B37;}
	.st19{clip-path:url(#SVGID_6_);fill:#929292;}
	.st20{clip-path:url(#SVGID_8_);fill:#929292;}
	.st21{clip-path:url(#SVGID_10_);fill:#929292;}
	.st22{fill:#7F7474;}
	.st23{fill:#D51521;}
	.st24{fill:#494F59;}
	.st25{opacity:0.2;}
</style>
<g>
	<path class="st0" d="M387.2,88.9c0-12.4,10.1-22.5,22.5-22.5s22.5,10.1,22.5,22.5s-10.1,22.5-22.5,22.5   C397.3,111.4,387.2,101.3,387.2,88.9z M389.1,88.9c0,11.3,9.2,20.6,20.6,20.6c11.3,0,20.6-9.2,20.6-20.6s-9.2-20.6-20.6-20.6   S389.1,77.6,389.1,88.9z"/>
	<path class="st0" d="M403.5,88.2l9.1-9.1c0.4-0.4,1.1-0.4,1.5,0s0.4,1.1,0,1.5l-8.4,8.4l8.4,8.4c0.4,0.4,0.4,1.1,0,1.5   s-1.1,0.4-1.5,0l-9.1-9.1C403.1,89.3,403.1,88.6,403.5,88.2z"/>
</g>
<g>
	<path class="st1" d="M26.3,4.4C13.9,4.4,3.8,14.5,3.8,26.8s10.1,22.5,22.5,22.5s22.5-10.1,22.5-22.5S38.8,4.4,26.3,4.4z M30.6,21.5   c0,0-0.7,0-0.9,0c-0.4,0-0.9-0.2-1.3-0.2c-0.6,0-0.8,0-0.9,0.6c0,0.6,0,1.7,0,1.7c1,0,1.9,0,2.8,0c-0.1,1-0.2,2-0.3,3   c-0.8,0-1.4,0-2.4,0c0,3,0,6,0,9c-1,0-2,0-4,0c0-3,0-6,0-9h-1c0-1,0-2,0-3h1l0,0c0-0.8,0.1-1.5,0.1-2.3c0.1-1.3,0.7-2.4,2-3   c0.5-0.2,1-0.3,1.5-0.3c1,0,2.1,0,3.1,0h0.2C30.6,19,30.6,20.5,30.6,21.5z"/>
</g>
<ellipse class="st2" cx="78.6" cy="27.8" rx="22.5" ry="22.5"/>
<path class="st3" d="M78.6,49.3c-12.4,0-22.5-10.1-22.5-22.5S66.2,4.4,78.6,4.4s22.5,10.1,22.5,22.5S91,49.3,78.6,49.3L78.6,49.3z   M97.6,30c-0.7-0.2-5.9-1.8-12-0.8c2.5,6.9,3.5,12.5,3.7,13.7C93.7,40,96.7,35.3,97.6,30L97.6,30z M86.1,44.5  c-0.3-1.7-1.4-7.6-4.1-14.6h-0.1c-10.8,3.8-14.7,11.3-15.1,12c3.3,2.5,7.4,4.1,11.8,4.1C81.3,46.2,83.8,45.5,86.1,44.5L86.1,44.5z   M64.3,39.8c0.4-0.7,5.7-9.5,15.6-12.7c0.3-0.1,0.5-0.2,0.8-0.2c-0.5-1.1-1-2.2-1.6-3.3c-9.6,2.9-18.9,2.7-19.8,2.7  c0,0.2,0,0.4,0,0.6C59.4,31.8,61.3,36.3,64.3,39.8L64.3,39.8z M59.8,23c0.9,0,8.8,0,17.8-2.3C74.4,15,71,10.3,70.5,9.6  C65.1,12,61,17,59.8,23L59.8,23z M74.1,8.3c0.5,0.7,4,5.5,7.2,11.3c6.8-2.6,9.7-6.4,10.1-6.9c-3.4-3-7.9-4.8-12.7-4.8  C77.1,7.6,75.5,7.9,74.1,8.3L74.1,8.3z M93.5,14.8c-0.4,0.5-3.6,4.7-10.7,7.6c0.4,0.9,0.9,1.8,1.3,2.8c0.1,0.3,0.3,0.7,0.4,1  c6.4-0.8,12.8,0.5,13.4,0.6C97.8,22.2,96.2,18,93.5,14.8L93.5,14.8z"/>
<g>
	<path class="st4" d="M131.3,4.4c-12.4,0-22.5,10.1-22.5,22.5s10.1,22.5,22.5,22.5s22.5-10.1,22.5-22.5S143.8,4.4,131.3,4.4z    M125.3,35.5c-1,0-2,0-3,0c0-4,0-8,0-12c1,0,2,0,3,0C125.3,27.5,125.3,31.5,125.3,35.5z M124.3,21.8c-1.1,0-2-0.9-2-2   s0.9-1.9,2-1.9s2,0.9,1.9,1.9C126.3,21,125.3,21.8,124.3,21.8z M140.4,35.5L140.4,35.5c-1.3,0-3,0-4,0l0,0l0,0l0,0   c0-2.1,0.1-4.2,0.1-6.3c0-0.5,0-1.1-0.2-1.6c-0.3-0.9-0.9-1.3-1.9-1.2c-0.8,0.1-1.7,0.7-1.9,1.5c0,0.1-0.2,0.2-0.2,0.3   c0,2.4,0,4.9,0,7.3c-1,0-3,0-4,0c0-4,0-8,0-12c1,0,2.5,0,3.5,0c0.1,0,0.2,1.5,0.3,2.4c0.1-0.2,0.2-0.4,0.3-0.5   c1.4-2,4.3-2.5,6.2-1.1c1.1,0.8,1.5,1.9,1.7,3.2c0.1,0.4,0.1,0.8,0.1,1.2C140.4,31,140.4,33.2,140.4,35.5z"/>
</g>
<g>
	<circle class="st5" cx="185.1" cy="26.8" r="22.5"/>
	<path class="st6" d="M185.7,35.8c-2.5,0-4.4,0-6.3-0.1c-1.3,0-2.6-0.1-3.9-0.3c-1.5-0.2-2.5-1.1-2.8-2.6c-0.2-0.9-0.3-1.9-0.4-2.9   c-0.1-1.7-0.1-3.3-0.1-5c0-1.4,0.1-2.8,0.4-4.2c0.3-1.3,1.1-2.3,2.5-2.6c0.7-0.1,1.4-0.2,2.1-0.2c3.1-0.1,6.1-0.2,9.2-0.2   c2.1,0,4.3,0.1,6.5,0.2c0.7,0,1.4,0.1,2.1,0.2c1.4,0.3,2.2,1.2,2.5,2.6c0.2,0.9,0.3,1.8,0.4,2.7c0.1,1.8,0.1,3.6,0.1,5.3   c0,1.4-0.1,2.7-0.4,4c-0.4,1.4-1.2,2.3-2.6,2.6c-0.8,0.1-1.6,0.2-2.5,0.2C190,35.8,187.5,35.8,185.7,35.8z M182.4,30.2   c2.3-1.2,4.6-2.4,7-3.6c-2.4-1.2-4.6-2.4-7-3.6C182.4,25.3,182.4,27.8,182.4,30.2z"/>
</g>
<g>
	<path class="st7" d="M238.4,4.8c-12.4,0-22.5,10.1-22.5,22.5s10.1,22.5,22.5,22.5s22.5-10.1,22.5-22.5S250.8,4.8,238.4,4.8z    M248.3,23.7c-0.1,0.1-0.2,0.2-0.2,0.4c0.1,3.3-1,6.3-3.1,8.8s-4.8,4-8.1,4.3c-3,0.4-5.8-0.2-8.4-1.8l-0.1-0.1   c2.4,0.2,4.6-0.4,6.6-1.9c-2.6-0.2-3.9-1.9-4.2-3.2c0.7,0.1,1.3,0.1,1.9-0.1c-2.2-0.7-3.4-2.1-3.6-4.5c0.7,0.3,1.3,0.5,2,0.6   c-2-1.7-2.4-3.7-1.4-6.1c2.5,2.9,5.6,4.5,9.4,4.8c0-0.3-0.1-0.6-0.1-0.9c0-1.9,1-3.5,2.7-4.3c1.7-0.7,3.6-0.4,5,0.9   c0.1,0.1,0.2,0.2,0.4,0.1c0.9-0.2,1.8-0.6,2.6-1c-0.4,1.1-1,1.9-1.9,2.5c0.9-0.1,1.6-0.3,2.5-0.7C249.8,22.3,249.1,23,248.3,23.7z"/>
</g>
<circle class="st8" cx="292.6" cy="26.8" r="22.5"/>
<g>
	<path class="st6" d="M297.1,20.1c0-0.6,0-1.1,0-1.7c2.3,0,4.6,0,6.9,0c0,0.5,0,1.1,0,1.6l-0.1,0.1h-0.1c-2.1,0-4.3,0-6.4,0   C297.2,20.1,297.2,20.1,297.1,20.1z"/>
	<g>
		<path class="st6" d="M279.5,17.6L279.5,17.6L279.5,17.6z"/>
		<path class="st6" d="M279.5,34.9L279.5,34.9L279.5,34.9z"/>
		<path class="st6" d="M293,29c-0.2-1.5-0.9-2.6-2.4-3.2c-0.1,0-0.1-0.1-0.2-0.1c0.1-0.1,0.2-0.1,0.3-0.2c1-0.5,1.5-1.4,1.7-2.5    c0.1-0.7,0.1-1.4-0.1-2c-0.3-1.2-1-2.1-2.2-2.7c-1-0.5-2-0.6-3.1-0.6c-2.5,0-5.1,0-7.6,0l0,0c-0.3,0-0.5,0.3-0.5,0.6    c0,5.4,0,10.8,0,16.1c0,0.3,0.2,0.6,0.6,0.6l0,0c2.4,0,4.8,0,7.1,0c1,0,1.9-0.1,2.8-0.3c1.2-0.3,2.2-1,2.8-2.1    C293,31.4,293.2,30.2,293,29z M282.9,20.9c0-0.1,0-0.1,0-0.2c0.1,0,0.1,0,0.2,0c1.2,0,2.3,0,3.5,0c0.5,0,1,0.1,1.4,0.2    c0.5,0.1,0.9,0.5,1,1c0.2,0.7,0.1,1.3-0.3,1.9c-0.3,0.4-0.7,0.5-1.1,0.6s-0.8,0.1-1.1,0.1c-1.1,0-2.2,0-3.3,0    c-0.2,0-0.3,0-0.3-0.2C282.9,23.1,282.9,22,282.9,20.9z M288.9,31.1c-0.4,0.5-0.9,0.7-1.5,0.7c-0.9,0-1.9,0-2.8,0.1    c-0.5,0-0.9,0-1.4,0c-0.2,0-0.3,0-0.3-0.3c0-0.7,0-1.4,0-2.1s0-1.4,0-2.1c0-0.2,0-0.2,0.2-0.2c1.2,0,2.4,0,3.5,0    c0.5,0,1,0.1,1.4,0.2c0.8,0.2,1.2,0.7,1.3,1.5C289.5,29.8,289.4,30.5,288.9,31.1z"/>
	</g>
	<g>
		<path class="st6" d="M305.8,30.7C305.8,30.7,305.7,30.7,305.8,30.7L305.8,30.7L305.8,30.7z"/>
		<path class="st6" d="M306.3,31.4c0,0.1,0,0.1-0.1,0.2C306.3,31.5,306.3,31.5,306.3,31.4z"/>
		<path class="st6" d="M306.6,27.3c-0.1-1.1-0.3-2.1-0.9-3.1c-0.5-0.7-1-1.4-1.8-1.8c-1-0.6-2-0.8-3.1-0.8c-1.5,0-2.8,0.3-4,1.1    c-1,0.7-1.7,1.7-2,2.9c-0.5,1.6-0.5,3.2-0.1,4.8c0.3,1.1,0.8,2,1.7,2.7c1.3,1,2.7,1.5,4.3,1.5c1.4,0,2.8-0.3,4-1.2    c0.7-0.5,1.2-1.2,1.6-2c0-0.1,0.1-0.1,0.1-0.2v-0.1c0-0.3-0.2-0.5-0.5-0.5h-0.1c-0.7,0-1.5,0-2.2,0c-0.2,0-0.4,0.1-0.5,0.3    c-0.2,0.4-0.6,0.7-1,0.9c-0.5,0.3-1.1,0.3-1.7,0.2c-1.4-0.1-2.4-1-2.6-2.4c0-0.2,0-0.4-0.1-0.7c0.1,0,0.2,0,0.2,0c2.7,0,5.4,0,8,0    c0.1,0,0.2,0,0.4,0c0.2-0.1,0.4-0.3,0.4-0.5c0-0.3,0-0.7,0-1C306.7,27.5,306.6,27.4,306.6,27.3z M297.8,26.9    c0.1-1.3,0.9-2.6,2.7-2.6c1.7,0,2.8,1.1,2.8,2.6C301.5,26.9,299.6,26.9,297.8,26.9z"/>
	</g>
</g>
<g>
	<path class="st9" d="M347.2,4.3c-12.4,0-22.5,10.1-22.5,22.5s10.1,22.5,22.5,22.5s22.5-10.1,22.5-22.5S359.6,4.3,347.2,4.3z    M338.8,38c-1.6,0-2.8-1.3-2.8-2.8s1.3-2.8,2.8-2.8s2.8,1.3,2.8,2.8S340.3,38,338.8,38z M346.5,38c0-5.8-4.7-10.5-10.5-10.5v-4.2   c8.1,0,14.8,6.6,14.8,14.8L346.5,38L346.5,38z M354.9,38c0-5.1-2-9.8-5.6-13.4s-8.4-5.6-13.4-5.6v-4.2c6.2,0,12,2.4,16.4,6.8   s6.8,10.2,6.8,16.4H354.9z"/>
</g>
<linearGradient id="SVGID_1_" gradientUnits="userSpaceOnUse" x1="-280.7233" y1="42.8779" x2="-280.7702" y2="42.9872" gradientTransform="matrix(240 0 0 240 67836.1719 -10278.2188)">
	<stop offset="0" style="stop-color:#37AEE2"/>
	<stop offset="1" style="stop-color:#1E96C8"/>
</linearGradient>
<circle class="st10" cx="456" cy="27.8" r="22.5"/>
<path class="st11" d="M451.9,38.1c-0.7,0-0.6-0.3-0.9-1l-2.1-7.1l16.5-9.8"/>
<path class="st12" d="M451.9,38.1c0.6,0,0.8-0.3,1.1-0.6l3-2.9l-3.7-2.3"/>
<linearGradient id="SVGID_2_" gradientUnits="userSpaceOnUse" x1="-278.5263" y1="49.0468" x2="-278.4904" y2="49.1153" gradientTransform="matrix(130.4927 0 0 109.4496 36803.2656 -5339.7783)">
	<stop offset="0" style="stop-color:#EFF7FC"/>
	<stop offset="1" style="stop-color:#FFFFFF"/>
</linearGradient>
<path class="st13" d="M452.3,32.4l9.1,6.7c1,0.6,1.8,0.3,2-1l3.7-17.4c0.4-1.5-0.6-2.2-1.6-1.8l-21.7,8.4c-1.5,0.6-1.5,1.4-0.3,1.8  l5.6,1.7l12.9-8.1c0.6-0.4,1.2-0.2,0.7,0.2"/>
<linearGradient id="SVGID_3_" gradientUnits="userSpaceOnUse" x1="-280.2926" y1="43.2104" x2="-280.2926" y2="43.3986" gradientTransform="matrix(224 0 0 225.72 63294.8359 -9745.9375)">
	<stop offset="0" style="stop-color:#00C6FF"/>
	<stop offset="1" style="stop-color:#0068FF"/>
</linearGradient>
<path class="st14" d="M495,43.6v8.5l7.6-4.5c2.1,0.6,4.3,1,6.7,1c12.4,0,22.5-9.9,22.5-22.1S521.7,4.4,509.3,4.4  c-12.4,0-22.5,9.9-22.5,22.1C486.7,33.3,489.9,39.5,495,43.6L495,43.6z"/>
<path class="st6" d="M506.8,20.7l-12.1,13l11-6.1l5.8,6.1l12.1-13l-10.9,6C512.6,26.8,506.8,20.7,506.8,20.7z"/>
<g id="g3370" transform="translate(0 -21.99)">
	<g id="g5" transform="matrix(1.3755 0 0 1.4 -42.3 -26.4)">
		<path id="path7" class="st6" d="M305.3,70.6c0.9-2.8,1.9-5.5,2.9-8.3c-6.2-10.7,1.5-22.8,11.9-23.8c9.9-0.9,17.9,6,18,15.5    c0,10-9.9,18.5-21,15c-0.8-0.3-1.9-1.1-2.9-1.2c-1.4-0.1-3.2,0.9-4.5,1.3C308.1,69.8,306.8,70.3,305.3,70.6L305.3,70.6z M314.5,65    c9,5.4,19.7-0.7,20.6-9.4c0.8-7.9-5.6-15-14.3-14.4c-9.9,0.7-15.8,12.3-9.7,20.8c-0.5,1.5-1,2.9-1.5,4.5    C311.3,66,312.8,65.4,314.5,65L314.5,65z"/>

			<linearGradient id="SVGID_4_" gradientUnits="userSpaceOnUse" x1="83.5808" y1="378.1848" x2="83.5808" y2="352.4745" gradientTransform="matrix(6.7725 0 0 7.5295 -244.0518 -2780.5464)">
			<stop offset="0" style="stop-color:#64D840"/>
			<stop offset="0.5" style="stop-color:#12A100"/>
			<stop offset="1" style="stop-color:#64D840"/>
		</linearGradient>
		<path class="st15" d="M309.7,66.5c0.5-1.5,1-3,1.5-4.5c-6.1-8.5-0.1-20.1,9.7-20.8c8.7-0.6,15.1,6.4,14.3,14.4    c-0.9,8.8-11.7,14.8-20.6,9.4C312.8,65.4,311.3,66,309.7,66.5z M314.2,52.5c1.4,4,7.4,9.4,11.7,9.6c2.1,0.1,4.5-1,4.4-3.8    c-1.2-0.9-2.7-1.6-4.2-2.1c-0.7,0.7-1.3,1.6-2.2,2.1c-2.6-1.2-4.7-2.9-5.9-5.5c2.4-1.3,0.9-4.2,0-6.1    C314.3,45.6,313.3,50.1,314.2,52.5L314.2,52.5z"/>
		<path class="st6" d="M318,46.7c0.9,1.9,2.4,4.8,0,6.1c1.2,2.5,3.2,4.3,5.9,5.5c0.9-0.6,1.4-1.4,2.2-2.1c1.5,0.6,3,1.3,4.2,2.1    c0.1,2.8-2.3,3.9-4.4,3.8c-4.3-0.2-10.3-5.6-11.7-9.6C313.3,50.1,314.3,45.6,318,46.7L318,46.7z"/>
	</g>
</g>
<path class="st6" d="M37.8,79.5v-9h-23v9h-12v31h47v-31H37.8z M30.6,91.2c-0.2-0.5-0.5-1-0.8-1.4c-1.8-2.4-4.2-2.4-6.1,0  c-0.3,0.4-0.6,0.9-0.8,1.3c-7.4-1-14.5-6.6-16.9-9.6h40.9C44.7,84.5,37.9,89.8,30.6,91.2z M29,92.4c-0.1,0.5-1.2,2.4-2.3,2.4  c-0.5,0-1-0.4-1.5-1c-0.5-0.7-0.7-1.2-0.8-1.3c0-0.2,0.3-0.8,0.8-1.4c0.5-0.7,1.1-1.1,1.6-1.1c0.4,0,1,0.4,1.5,1.1  C28.8,91.7,29,92.3,29,92.4z M31.8,79.5h-11v-3h11V79.5z M16.8,72.5h19v7h-2v-5h-15v5h-2V72.5z M4.8,108.5V83.1  c2,2.5,10,8.9,18,10.1c0.2,0.6,0.6,1.3,1,1.8c0.9,1.1,2,1.8,3,1.8c2,0,3.3-2.1,3.8-3.5c7.7-1.4,15.2-7.6,17.2-10.1v25.3H4.8z"/>
<g>
	<path class="st6" d="M108.3,71.4h-51v33h19.1c0,0-0.1,0-0.1,0.1v1.4l-4.1,3.5c-0.3,0.3-0.4,0.9-0.3,1.2c0.1,0.4,0.5,0.8,0.9,0.8   h20.1c0.4,0,0.8-0.4,0.9-0.8s0-0.9-0.3-1.1l-3.9-3.6c0-0.4-0.1-0.9-0.1-1.2c0-0.1,0-0.1,0-0.2s0-0.1,0-0.1h18.8   C108.3,104.4,108.3,71.4,108.3,71.4z M87.7,106.4c0,0.2,0.1,0.6,0.3,0.8l2.3,2.2H75.4l2.5-2.2c0.2-0.2,0.4-0.6,0.4-0.9v-1.8   c0-0.1,0-0.1-0.1-0.1h9.4C87.6,104.4,87.6,105.2,87.7,106.4z M106.3,102.4h-47v-29h47V102.4z"/>
	<path class="st6" d="M102.3,76.4c0-0.5-0.4-1-1-1h-38c-0.5,0-1,0.4-1,1v20.1c0,0.5,0.4,1,1,1h38.1c0.5,0,1-0.4,1-1L102.3,76.4   L102.3,76.4z M64.3,77.4h37v18h-37V77.4z"/>
	<path class="st6" d="M82.8,98.8c-0.7,0-1.3,0.5-1.3,1.2s0.6,1.2,1.3,1.2s1.3-0.6,1.3-1.2C84.1,99.3,83.5,98.8,82.8,98.8z M82.5,100   c0-0.1,0.1-0.3,0.3-0.3c0.2,0,0.3,0.1,0.3,0.3C83.1,100.3,82.5,100.3,82.5,100z"/>
	<rect x="67.3" y="79.4" class="st6" width="13" height="2"/>
	<rect x="67.3" y="83.4" class="st6" width="13" height="3"/>
	<rect x="67.3" y="88.4" class="st6" width="13" height="4"/>
	<rect x="84.3" y="79.4" class="st6" width="13" height="2"/>
	<rect x="84.3" y="83.4" class="st6" width="13" height="3"/>
	<rect x="84.3" y="88.4" class="st6" width="13" height="4"/>
</g>
<path class="st6" d="M157,79.2v-3.6v-0.1v-2.1c1,0.1,2.1,0.5,2.2,0.9c0.1,0.2-0.1,0.8-1.2,1.9c-0.4,0.3-0.4,0.9,0,1.3  c0.2,0.2,0.4,0.3,0.7,0.3c0.2,0,0.5-0.1,0.6-0.2c0.6-0.5,2.4-2.2,1.8-3.9c-0.7-1.9-4-2.2-4.6-2.2c-0.3,0-0.7,0.1-0.9,0.4  c-0.2,0.2-0.5,0.4-0.5,0.7v3v0.1v0.4c-1,0-4,0.2-7,0.8v-0.1c1-0.1,0.8-0.6,0.8-0.9c0-0.4-0.3-1-0.9-1h-4.6c-0.5,0-1,0.6-1,1  s0.4,1,1,1h2.7v0.5c-6,1.6-14.2,5.4-17.5,14c-0.1,0-0.1,0-0.2,0c-5.3,0-9.5,4.3-9.5,9.5c0,5.3,4.3,9.6,9.6,9.6s9.6-4.3,9.6-9.6  c0-4.5-3.2-8.3-7.4-9.3C135.8,79,152.2,78,155.2,78v1.3c-8,0.5-15,7.5-15,16.1c0,8.9,7.3,16.2,16.2,16.2s16.1-7.2,16.1-16.2  C172.3,86.7,166,79.6,157,79.2z M128.7,101c0,0.3-0.3,0.6-0.6,0.6s-0.6-0.3-0.6-0.6c0-0.3,0.3-0.6,0.6-0.6  C128.5,100.4,128.7,100.6,128.7,101z M136,100.8c0,4.2-3.4,7.6-7.6,7.6c-4.2,0-7.6-3.4-7.6-7.6c0-4.1,3.2-7.4,7.3-7.6  c-0.5,1.7-0.9,3.4-1,5.4H127v1.1c0,0.3-0.5,0.7-0.5,1.2c0,0.9,0.8,1.6,1.6,1.6c0.9,0,1.5-0.7,1.5-1.6c0-0.5,0.4-0.9-0.6-1.2v-1h0.2  c0.1-2,0.4-3.7,0.8-5.3C133.4,94.3,136,97.1,136,100.8z M156.2,94.7c0.3,0,0.6,0.3,0.6,0.6s-0.3,0.6-0.6,0.6s-0.6-0.3-0.6-0.6  S155.9,94.7,156.2,94.7z M156.2,109.5c-7.9,0-14.4-6.4-14.4-14.2c0-7.5,6.1-13.6,13.1-14.2v12.5c0,0.2,0.2,0.3,0.2,0.5  c-0.4,0.3-0.6,0.7-0.6,1.3c0,0.9,0.7,1.6,1.6,1.6s1.6-0.7,1.6-1.6c0-0.6-0.4-1.1-0.8-1.3c0.1-0.1,0-0.2,0-0.4V81.1  c8,0.5,13.4,6.6,13.4,14.2C170.4,103.1,164.1,109.5,156.2,109.5z"/>
<g>
	<path class="st6" d="M190.5,95.7c0,1.3-0.1,2.6,0,3.9s1.4,2.1,2.9,2.1c5.4,0,10.8,0,16.2,0c2.3,0,4.5,0,6.8,0c2.7,0,4.8,2,4.9,4.7   c0,2.6-2,4.8-4.6,4.9c-2.7,0.1-4.9-1.9-5-4.6c0-0.9,0.3-1.9,0.5-2.8c-3.7,0-7.4,0-11.2,0c1.2,2.7,0.9,5-1.7,6.7   c-1.7,1.1-4,0.9-5.5-0.4c-1.8-1.5-2.2-3.5-1.1-6.3c-0.2-0.1-0.3-0.1-0.5-0.2c-2.5-0.6-3.9-2.4-3.9-4.9c0-8.6,0-17.2,0-25.8   c0-0.8-0.3-1.2-1-1.5c-1.6-0.6-3.2-1.3-4.8-2c-0.9-0.4-1.2-0.9-0.9-1.5s0.9-0.8,1.7-0.4c2,0.8,4,1.7,6,2.5c0.7,0.3,1,0.8,1,1.6   c0,1.2,0,2.3,0,3.5c0,0.5,0.2,0.6,0.6,0.7c8.3,1.1,16.5,2.3,24.8,3.4c1.7,0.2,3.4,0.5,5.1,0.7c1.2,0.2,1.5,0.5,1.5,1.7   c0,3.2,0,6.3,0,9.5c0,3-2.1,5.1-5.1,5.1c-8,0-16,0-24,0C192.5,96.2,191.5,95.9,190.5,95.7z M190.5,77.9c0,0.3-0.1,0.6-0.1,0.8   c0,4.1,0,8.3,0,12.4c0,1.8,1.1,2.9,3,2.9c1.5,0,2.9,0,4.4,0c6.5,0,13,0,19.5,0c1.8,0,3-1.1,3-2.8c0-2.9,0-5.8,0-8.6   c0-0.5-0.2-0.7-0.7-0.8c-2.5-0.3-5.1-0.7-7.6-1c-5.1-0.7-10.2-1.4-15.3-2.1C194.7,78.5,192.7,78.2,190.5,77.9z M196.8,109.2   c1.5,0,2.7-1.2,2.7-2.7s-1.2-2.7-2.7-2.6c-1.4,0-2.6,1.2-2.6,2.6C194.1,108,195.3,109.2,196.8,109.2z M216.5,103.9   c-1.5,0-2.7,1.2-2.7,2.6c0,1.5,1.2,2.7,2.7,2.7s2.6-1.2,2.7-2.6C219.1,105.2,218,103.9,216.5,103.9z"/>
</g>
<g>
	<g id="search">
		<path class="st6" d="M241.1,75.2h-1l-0.4-0.4c1.3-1.4,2-3.3,2-5.3c0-4.5-3.6-8.2-8.2-8.2s-8.2,3.6-8.2,8.2s3.6,8.2,8.2,8.2    c2,0,3.9-0.8,5.3-2l0.4,0.4v1l6.3,6.3l1.9-1.9L241.1,75.2z M233.6,75.2c-3.1,0-5.7-2.5-5.7-5.7c0-3.1,2.5-5.7,5.7-5.7    c3.1,0,5.7,2.5,5.7,5.7C239.2,72.7,236.7,75.2,233.6,75.2z"/>
	</g>
</g>
<g>
	<g id="search_1_">
		<path class="st16" d="M241.1,101.6h-1l-0.4-0.4c1.3-1.4,2-3.3,2-5.3c0-4.5-3.6-8.2-8.2-8.2s-8.2,3.6-8.2,8.2s3.6,8.2,8.2,8.2    c2,0,3.9-0.8,5.3-2l0.4,0.4v1l6.3,6.3l1.9-1.9L241.1,101.6z M233.5,101.6c-3.1,0-5.7-2.5-5.7-5.7s2.5-5.7,5.7-5.7    c3.1,0,5.7,2.5,5.7,5.7S236.7,101.6,233.5,101.6z"/>
	</g>
</g>
<g>
	<path class="st6" d="M267.4,81.4c-4.3,0-8.7,0-13,0l0,0c-1-0.2-1.6-0.9-1.6-2c0-2.6,0-5.3,0-7.9c0-2.7,0-5.5,0-8.2   c0-0.8,0.5-1.5,1.3-1.8c0.1,0,0.2-0.1,0.3-0.1c4.3,0,8.7,0,13,0l0,0c1,0.2,1.6,0.9,1.6,2c0,2.2,0,4.5,0,6.7c0,3.1,0,6.3,0,9.4   C269,80.4,268.3,81.2,267.4,81.4L267.4,81.4z M254,71.4c0,2.7,0,5.4,0,8.1c0,0.4,0.3,0.7,0.7,0.7c4.1,0,8.3,0,12.4,0   c0.4,0,0.7-0.3,0.7-0.7c0-5.4,0-10.7,0-16.1c0-0.5-0.2-0.7-0.7-0.7c-4.1,0-8.2,0-12.3,0c-0.5,0-0.7,0.2-0.7,0.7   C254,66.1,254,68.7,254,71.4z"/>
	<path class="st6" d="M260.8,64.5c1.4,0,2.8,0,4.3,0c0.5,0,0.7,0.2,0.7,0.7c0,0.4,0,2.7,0,3.1s-0.3,0.7-0.7,0.7c-2.9,0-5.8,0-8.7,0   c-0.4,0-0.7-0.3-0.7-0.7c0-0.4,0-2.7,0-3.1c0-0.5,0.2-0.7,0.7-0.7C258,64.5,259.4,64.5,260.8,64.5z"/>
	<path class="st6" d="M257.1,74.4c-0.2,0-0.4,0-0.6,0c-0.4,0-0.6-0.3-0.6-0.6c0-0.4,0-0.8,0-1.2c0-0.4,0.3-0.6,0.6-0.6   c0.4,0,0.8,0,1.2,0c0.4,0,0.6,0.3,0.6,0.6c0,0.4,0,0.8,0,1.2c0,0.4-0.3,0.7-0.7,0.7C257.5,74.4,257.3,74.4,257.1,74.4z"/>
	<path class="st6" d="M262.1,73.2c0,0.2,0,0.4,0,0.6c0,0.4-0.3,0.6-0.6,0.6c-0.4,0-0.8,0-1.2,0c-0.4,0-0.6-0.3-0.6-0.6   c0-0.4,0-0.8,0-1.2c0-0.4,0.3-0.6,0.6-0.6c0.4,0,0.8,0,1.2,0c0.4,0,0.6,0.3,0.6,0.7C262.1,72.8,262.1,73,262.1,73.2z"/>
	<path class="st6" d="M264.6,74.4c-0.2,0-0.4,0-0.6,0c-0.4,0-0.6-0.3-0.6-0.6c0-0.4,0-0.8,0-1.2c0-0.4,0.3-0.6,0.6-0.6   c0.4,0,0.8,0,1.2,0c0.4,0,0.6,0.3,0.6,0.6c0,0.4,0,0.8,0,1.2c0,0.4-0.3,0.6-0.6,0.6C265,74.4,264.8,74.4,264.6,74.4z"/>
	<path class="st6" d="M258.3,76.9c0,0.2,0,0.4,0,0.6c0,0.4-0.3,0.6-0.6,0.6c-0.4,0-0.8,0-1.2,0c-0.4,0-0.6-0.3-0.6-0.6   c0-0.4,0-0.8,0-1.3c0-0.4,0.3-0.6,0.6-0.6c0.4,0,0.8,0,1.2,0c0.4,0,0.6,0.3,0.6,0.6C258.3,76.5,258.3,76.7,258.3,76.9z"/>
	<path class="st6" d="M260.8,78.2c-0.2,0-0.4,0-0.6,0c-0.4,0-0.6-0.3-0.6-0.6c0-0.4,0-0.8,0-1.2c0-0.4,0.3-0.6,0.6-0.6   c0.4,0,0.8,0,1.2,0c0.4,0,0.6,0.3,0.6,0.6c0,0.4,0,0.8,0,1.2c0,0.4-0.3,0.6-0.6,0.6C261.2,78.2,261,78.2,260.8,78.2z"/>
	<path class="st6" d="M263.3,76.9c0-0.2,0-0.4,0-0.6c0-0.4,0.3-0.6,0.6-0.6c0.4,0,0.8,0,1.2,0c0.4,0,0.6,0.3,0.6,0.6   c0,0.4,0,0.8,0,1.2c0,0.4-0.3,0.6-0.6,0.6c-0.4,0-0.8,0-1.2,0c-0.4,0-0.6-0.3-0.6-0.7C263.3,77.3,263.3,77.1,263.3,76.9z"/>
</g>
<g>
	<path class="st16" d="M267.3,107.8c-4.3,0-8.7,0-13,0l0,0c-1-0.2-1.6-0.9-1.6-2c0-2.6,0-5.3,0-7.9c0-2.7,0-5.5,0-8.2   c0-0.8,0.5-1.5,1.3-1.8c0.1,0,0.2-0.1,0.3-0.1c4.3,0,8.7,0,13,0l0,0c1,0.2,1.6,0.9,1.6,2c0,2.2,0,4.5,0,6.7c0,3.1,0,6.3,0,9.4   C269,106.8,268.3,107.6,267.3,107.8C267.4,107.8,267.4,107.8,267.3,107.8z M254,97.8c0,2.7,0,5.4,0,8.1c0,0.4,0.3,0.7,0.7,0.7   c4.1,0,8.3,0,12.4,0c0.4,0,0.7-0.3,0.7-0.7c0-5.4,0-10.7,0-16.1c0-0.5-0.2-0.7-0.7-0.7c-4.1,0-8.2,0-12.3,0c-0.5,0-0.7,0.2-0.7,0.7   C254,92.4,254,95.1,254,97.8z"/>
	<path class="st16" d="M260.8,90.9c1.4,0,2.9,0,4.3,0c0.5,0,0.7,0.2,0.7,0.7c0,0.4,0,2.7,0,3.1s-0.3,0.7-0.7,0.7c-2.9,0-5.8,0-8.7,0   c-0.4,0-0.7-0.3-0.7-0.7c0-0.4,0-2.7,0-3.1c0-0.5,0.2-0.7,0.7-0.7C258,90.9,259.4,90.9,260.8,90.9z"/>
	<path class="st16" d="M257.1,100.8c-0.2,0-0.4,0-0.6,0c-0.4,0-0.6-0.3-0.6-0.6c0-0.4,0-0.8,0-1.2c0-0.4,0.3-0.6,0.6-0.6   c0.4,0,0.8,0,1.2,0c0.4,0,0.6,0.3,0.6,0.6c0,0.4,0,0.8,0,1.2c0,0.4-0.3,0.7-0.7,0.7C257.5,100.8,257.3,100.8,257.1,100.8z"/>
	<path class="st16" d="M262.1,99.6c0,0.2,0,0.4,0,0.6c0,0.4-0.3,0.6-0.6,0.6c-0.4,0-0.8,0-1.2,0c-0.4,0-0.6-0.3-0.6-0.6   c0-0.4,0-0.8,0-1.2c0-0.4,0.3-0.6,0.6-0.6c0.4,0,0.8,0,1.2,0c0.4,0,0.6,0.3,0.6,0.7C262.1,99.2,262.1,99.4,262.1,99.6z"/>
	<path class="st16" d="M264.6,100.8c-0.2,0-0.4,0-0.6,0c-0.4,0-0.6-0.3-0.6-0.6c0-0.4,0-0.8,0-1.2c0-0.4,0.3-0.6,0.6-0.6   c0.4,0,0.8,0,1.2,0c0.4,0,0.6,0.3,0.6,0.6c0,0.4,0,0.8,0,1.2c0,0.4-0.3,0.6-0.6,0.6C265,100.8,264.8,100.8,264.6,100.8z"/>
	<path class="st16" d="M258.3,103.3c0,0.2,0,0.4,0,0.6c0,0.4-0.3,0.6-0.6,0.6c-0.4,0-0.8,0-1.2,0c-0.4,0-0.6-0.3-0.6-0.6   c0-0.4,0-0.8,0-1.3c0-0.4,0.3-0.6,0.6-0.6c0.4,0,0.8,0,1.2,0c0.4,0,0.6,0.3,0.6,0.6C258.3,102.9,258.3,103.1,258.3,103.3z"/>
	<path class="st16" d="M260.8,104.5c-0.2,0-0.4,0-0.6,0c-0.4,0-0.6-0.3-0.6-0.6c0-0.4,0-0.8,0-1.2c0-0.4,0.3-0.6,0.6-0.6   c0.4,0,0.8,0,1.2,0c0.4,0,0.6,0.3,0.6,0.6c0,0.4,0,0.8,0,1.2c0,0.4-0.3,0.6-0.6,0.6C261.2,104.5,261,104.5,260.8,104.5z"/>
	<path class="st16" d="M263.3,103.3c0-0.2,0-0.4,0-0.6c0-0.4,0.3-0.6,0.6-0.6c0.4,0,0.8,0,1.2,0c0.4,0,0.6,0.3,0.6,0.6   c0,0.4,0,0.8,0,1.2c0,0.4-0.3,0.6-0.6,0.6c-0.4,0-0.8,0-1.2,0c-0.4,0-0.6-0.3-0.6-0.7C263.3,103.7,263.3,103.5,263.3,103.3z"/>
</g>
<g>
	<path class="st6" d="M274.2,76.6l15.9-15.9c0.4-0.4,1-0.4,1.5,0c0.4,0.4,0.4,1,0,1.4L275.7,78c-0.4,0.4-1,0.4-1.4,0   C273.8,77.6,273.8,77,274.2,76.6z"/>
	<path class="st6" d="M275.7,60.6l15.9,15.9c0.4,0.4,0.4,1,0,1.4s-1,0.4-1.4,0L274.3,62c-0.4-0.4-0.4-1,0-1.5   C274.6,60.2,275.3,60.2,275.7,60.6z"/>
</g>
<g>
	<path class="st17" d="M274.2,104.6l15.9-15.9c0.4-0.4,1-0.4,1.5,0c0.4,0.4,0.4,1,0,1.4L275.7,106c-0.4,0.4-1,0.4-1.4,0   C273.8,105.6,273.8,105,274.2,104.6z"/>
	<path class="st17" d="M275.7,88.6l15.9,15.9c0.4,0.4,0.4,1,0,1.4s-1,0.4-1.4,0L274.3,90c-0.4-0.4-0.4-1,0-1.5   C274.6,88.2,275.3,88.2,275.7,88.6z"/>
</g>
<g>
	<path class="st0" d="M387.2,88.9c0-12.4,10.1-22.5,22.5-22.5s22.5,10.1,22.5,22.5s-10.1,22.5-22.5,22.5   C397.3,111.4,387.2,101.3,387.2,88.9z M389.1,88.9c0,11.3,9.2,20.6,20.6,20.6c11.3,0,20.6-9.2,20.6-20.6s-9.2-20.6-20.6-20.6   S389.1,77.6,389.1,88.9z"/>
	<path class="st0" d="M403.5,88.2l9.1-9.1c0.4-0.4,1.1-0.4,1.5,0s0.4,1.1,0,1.5l-8.4,8.4l8.4,8.4c0.4,0.4,0.4,1.1,0,1.5   s-1.1,0.4-1.5,0l-9.1-9.1C403.1,89.3,403.1,88.6,403.5,88.2z"/>
</g>
<g>
	<path class="st0" d="M457.9,111.6c-12.4,0-22.5-10.1-22.5-22.5s10.1-22.5,22.5-22.5s22.5,10.1,22.5,22.5S470.3,111.6,457.9,111.6z    M457.9,68.6c-11.3,0-20.6,9.2-20.6,20.6s9.2,20.6,20.6,20.6c11.3,0,20.6-9.2,20.6-20.6S469.2,68.6,457.9,68.6z"/>
	<path class="st0" d="M464,88.4l-9.1-9.1c-0.4-0.4-1.1-0.4-1.5,0s-0.4,1.1,0,1.5l8.4,8.4l-8.4,8.4c-0.4,0.4-0.4,1.1,0,1.5   s1.1,0.4,1.5,0L464,90C464.4,89.5,464.4,88.8,464,88.4z"/>
</g>
<g>
	<path class="st6" d="M343.1,111.4V79h8l-15.5-20.6L320.2,79h8v32.4H343.1z"/>
</g>
<g>
	<path class="st6" d="M362.2,58.4v32.4h-8l15.5,20.6l15.5-20.6h-8V58.4H362.2z"/>
</g>
<g>
	<path class="st18" d="M53,138.9c-2.3-2.4-4.7-4.7-7-7c-2.1-2.1-4.2-4.2-6.3-6.3c-1.9-1.8-4.6-1.6-6.2,0.3c-0.4,0.5-0.7,1.1-1,1.7   c-2.6-0.9-5.1,0.3-5.9,3.2c-2.5-0.6-4.5,0.2-5.7,2.8c-0.5-0.5-1-1-1.5-1.5c-1-1-2-2.1-3.1-2.9c-2.1-1.6-5-0.9-6.2,1.5   c-0.9,1.7-0.6,3.6,1,5.2c4.1,4.1,8.2,8.2,12.3,12.3c1.8,1.8,3.6,3.6,5.5,5.5c-0.2,0.1-0.4,0.1-0.5,0.2c-1.7,0.8-3.5,1.5-5.1,2.4   c-1,0.6-2.1,1.1-2.8,2.2c-1.2,1.8-0.9,4.5,0.7,6.2c1.6,1.6,4,1.7,6.1,0.3c2.9-1.9,6-3,9.4-3c1.7,0,3.4,0.3,5.2,0.4   c4.7,0.4,8.6-1.3,11.7-4.8C58.3,152.2,58.1,144.2,53,138.9z M52.9,154.7c-2.5,4-7.4,6.4-12.3,5.4c-3.3-0.7-6.6-0.3-9.9,0.8   c-1.8,0.6-3.4,1.4-4.9,2.4c-0.9,0.6-1.8,0.8-2.8,0.2s-1.3-1.5-1.3-2.6c0-0.8,0.4-1.3,1-1.8c2.4-1.6,5-2.9,7.9-3.7   c0.5-0.1,1.1-0.3,1.2-0.9c0.2-0.6-0.2-1-0.6-1.5c-3.1-3.1-6.3-6.2-9.4-9.4c-3.1-3.1-6.3-6.2-9.4-9.4c-0.9-0.9-1.1-1.8-0.6-2.7   c0.7-1.2,2.3-1.4,3.3-0.4c2.5,2.5,5,5,7.6,7.5c2,2,4,4,6,6c0.6,0.6,1.3,0.6,1.7,0.1c0.5-0.5,0.4-1.1-0.2-1.7   c-2.3-2.3-4.5-4.5-6.8-6.8c-1-1-1-2.2-0.1-3.1c0.7-0.7,1.8-0.8,2.6-0.2c0.6,0.5,1.1,1,1.6,1.6c1.7,1.7,3.4,3.4,5.1,5.1   c0.3,0.3,0.5,0.5,0.8,0.7c0.4,0.3,0.9,0.2,1.3-0.1c0.4-0.4,0.5-0.8,0.2-1.3c-0.2-0.3-0.5-0.7-0.8-0.9c-1.7-1.7-3.3-3.4-5-5   c-1-0.9-0.9-2.3-0.2-3c0.8-0.9,2.1-0.8,3.1,0.2c1.8,1.7,3.5,3.5,5.3,5.3c0.6,0.6,1.2,0.6,1.6,0.2c0.5-0.5,0.5-1.1-0.1-1.7   c-1.2-1.3-2.5-2.5-3.8-3.8c-1-1-1-2.2-0.2-3.1c0.9-0.9,2.1-0.8,3.1,0.2c4.3,4.3,8.6,8.6,12.9,12.9C55.2,144.3,55.9,150,52.9,154.7z   "/>
	<path class="st18" d="M13.7,125.2c0.3,0.1,0.8,0,1.1-0.2c0.6-0.4,0.5-3.2-0.2-3.8c-0.2,0-0.6-0.2-0.9-0.1c-0.3,0.1-0.7,0.5-0.7,0.8   c-0.1,0.8-0.1,1.7,0,2.6C13.1,124.7,13.4,125.1,13.7,125.2z"/>
	<path class="st18" d="M5.3,134.1c0.3,0,0.7-0.4,0.8-0.8c0.1-0.3-0.1-0.8-0.3-1c-0.4-0.5-3.1-0.5-3.8,0.1c0,0.2-0.2,0.6-0.1,0.9   c0.1,0.3,0.5,0.7,0.8,0.7C3.6,134.2,4.5,134.2,5.3,134.1z"/>
	<path class="st18" d="M10.7,125.2c-0.4-0.8-0.8-1.5-1.2-2.2c-0.5-0.4-1-0.6-1.5-0.3c-0.5,0.3-0.7,0.8-0.4,1.3   c0.4,0.7,0.8,1.4,1.2,2.1c0.3,0.5,0.9,0.5,1.4,0.3C10.7,126.1,10.9,125.7,10.7,125.2z"/>
	<path class="st18" d="M6.2,129.7c0.5,0.2,1,0,1.2-0.5c0.3-0.5,0.2-0.9-0.3-1.5c-0.6-0.3-1.3-0.8-2.1-1.1c-0.5-0.2-1,0-1.2,0.5   c-0.3,0.5-0.3,1,0.2,1.3C4.6,128.9,5.4,129.4,6.2,129.7z"/>
	<path class="st18" d="M18.1,126.5c0.5,0.3,0.9,0.3,1.5-0.3c0.4-0.6,0.8-1.3,1.2-2.1c0.2-0.5,0-1-0.5-1.2c-0.5-0.3-1-0.3-1.3,0.2   c-0.5,0.7-1,1.4-1.4,2.2C17.5,125.7,17.7,126.2,18.1,126.5z"/>
	<path class="st18" d="M6.1,136.8c-0.7,0.4-1.4,0.8-2,1.3c-0.5,0.4-0.6,0.9-0.2,1.4c0.3,0.5,0.8,0.7,1.4,0.4   c0.7-0.4,1.4-0.8,1.9-1.1c0.5-0.5,0.7-1,0.3-1.5C7.2,136.7,6.7,136.5,6.1,136.8z"/>
</g>
<g>
	<path class="st18" d="M108,159.2l-14.6-14.7c1.2-2.2,1.8-4.8,1.8-7.5c0-8.9-7.2-16.1-16.1-16.1S63,128.1,63,137s7.2,16.1,16.1,16.1   c2.7,0,5.2-0.7,7.5-1.8l14.7,14.7L108,159.2z M65.1,137.1c0-7.7,6.3-14,14-14s14,6.3,14,14s-6.3,14-14,14   C71.4,151,65.1,144.8,65.1,137.1z M92.2,146.4l9.6,9.7l-3.8,3.8l-9.7-9.7C89.9,149.1,91.1,147.9,92.2,146.4z M99.6,161.3l3.8-3.8   l1.6,1.6l-3.8,3.8L99.6,161.3z"/>
	<path class="st18" d="M77.3,127.4c-2.2,1-4.1,1.3-5.5,2.8s-2.2,3.6-2.1,5.8c0,0.1,0,0.2,0,0.2l1.8-0.1V136   c-0.1-3.3,2.4-6.2,5.8-6.3l0.1-0.2L77.3,127.4L77.3,127.4z"/>
</g>
<g>
	<path class="st18" d="M134.2,130.6v-8c0-0.5-0.8-0.7-1.3-0.7H114c-0.5,0-1,0.1-1,0.7v8v0.5V167h55v-36.4H134.2z M114.9,123.9h17.4   v6.7h-17.4V123.9z M166.1,165.1H115v-32.6h51.1V165.1z"/>
	<path class="st18" d="M163.2,137.3h-45.4v11.5h45.4V137.3z M161.2,146.9h-41.5v-7.7h41.5V146.9z"/>
	<path class="st18" d="M131.3,151.7h-13.5v8.6h13.5V151.7z M129.4,158.4h-9.6v-4.8h9.6V158.4z"/>
	<path class="st18" d="M133.3,160.3h14.5v-8.6h-14.5V160.3z M135.2,153.6h10.6v4.8h-10.6V153.6z"/>
	<path class="st18" d="M149.7,160.3h13.5v-8.6h-13.5V160.3z M151.6,153.6h9.6v4.8h-9.6V153.6z"/>
	<rect x="117.8" y="125.8" class="st18" width="1.9" height="1.9"/>
	<rect x="122.6" y="125.8" class="st18" width="1.9" height="1.9"/>
	<rect x="127.5" y="125.8" class="st18" width="1.9" height="1.9"/>
</g>
<path class="st18" d="M210,130v-9h-23v9h-12v31h47v-31H210z M202.9,141.8c-0.2-0.5-0.5-1-0.8-1.4c-1.8-2.4-4.2-2.4-6.1,0  c-0.3,0.4-0.6,0.9-0.8,1.3c-7.4-1.1-14.5-6.7-16.9-9.7h40.9C216.9,135,210.1,140.3,202.9,141.8z M201.2,142.9  c-0.1,0.5-1.2,2.4-2.3,2.4c-0.5,0-1-0.4-1.5-1c-0.5-0.7-0.7-1.2-0.8-1.3c0-0.2,0.3-0.8,0.8-1.4c0.5-0.7,1.1-1.1,1.6-1.1  c0.4,0,1,0.4,1.5,1.1S201.2,142.9,201.2,142.9z M204,130h-11v-3h11V130z M189,123h19v7h-2v-5h-15v5h-2V123z M177,159v-25.4  c2,2.5,10,8.9,18,10.1c0.2,0.6,0.6,1.3,1,1.8c0.9,1.1,2,1.8,3,1.8c2,0,3.3-2.1,3.8-3.5c7.7-1.4,15.2-7.6,17.2-10.1V159H177z"/>
<g>
	<path class="st18" d="M261.9,158h-14.4c-10.2,0-18.5-8.3-18.5-18.5c0-4.9,1.9-9.6,5.4-13.1c3.5-3.5,8.1-5.4,13.1-5.4h16.6   c10.2,0,18.5,8.3,18.5,18.5c0,4.8-1.8,9.4-5.2,12.8c-0.1,0.1-0.2,0.2-0.3,0.3l-1.5-1.6l0.2-0.2c3-3.1,4.6-7.1,4.6-11.4   c0-9-7.3-16.3-16.3-16.3h-16.6c-4.4,0-8.5,1.7-11.6,4.8s-4.8,7.2-4.8,11.6c0,9,7.3,16.3,16.3,16.3h14.3L261.9,158z"/>
	<path class="st18" d="M268.4,166c-0.1,0-0.3,0-0.4-0.1c-1-0.3-0.9-1-0.5-3c0.2-1,0-1.9-0.5-2.6c-1.4-1.9-4.9-2.3-5.3-2.4v-2.1h0.2   c1.1,0.1,4.9,0.7,6.8,3.2c0.3,0.4,0.5,0.9,0.7,1.3c1.4-2.6,3.4-6,6.4-9.5l1.8,1.2c-4.4,5.1-6.7,10.1-7.7,12.2   C269.4,165.3,269.1,166,268.4,166z"/>
	<path class="st18" d="M243.1,144.2c-1.2,0-2.4-0.5-3.3-1.4c-0.9-0.8-1.3-2-1.3-3.2s0.5-2.4,1.4-3.2c1.7-1.7,4.8-1.7,6.5,0   c0.9,0.9,1.3,2,1.3,3.2C247.7,142.1,245.6,144.2,243.1,144.2z M243.1,136.9c-0.7,0-1.4,0.3-1.9,0.8s-0.8,1.2-0.8,1.9   s0.3,1.4,0.8,1.9s1.2,0.8,1.9,0.8c1.4,0,2.6-1.2,2.6-2.6c0-0.7-0.3-1.4-0.8-1.8C244.5,137.2,243.8,136.9,243.1,136.9z"/>
	<path class="st18" d="M254.9,144c-1.2,0-2.4-0.5-3.3-1.3c-0.9-0.9-1.3-2-1.3-3.2s0.5-2.4,1.4-3.2c1.7-1.7,4.8-1.7,6.5,0   c0.9,0.8,1.3,2,1.3,3.2C259.5,141.9,257.4,144,254.9,144z M254.9,136.8c-0.7,0-1.4,0.3-1.9,0.8s-0.8,1.1-0.8,1.8s0.3,1.4,0.8,1.9   s1.2,0.8,1.9,0.8c1.4,0,2.6-1.2,2.6-2.6c0-0.7-0.3-1.4-0.8-1.8C256.2,137.1,255.6,136.8,254.9,136.8z"/>
	<path class="st18" d="M266.8,144.2c-1.2,0-2.4-0.5-3.3-1.4c-0.8-0.8-1.3-2-1.3-3.2s0.5-2.4,1.3-3.2c1.7-1.7,4.8-1.7,6.5,0   c0.9,0.8,1.3,2,1.3,3.2C271.4,142.1,269.3,144.2,266.8,144.2z M266.8,136.9c-0.7,0-1.4,0.3-1.9,0.8s-0.8,1.2-0.8,1.9   s0.3,1.4,0.8,1.9s1.2,0.8,1.9,0.8c1.5,0,2.6-1.2,2.6-2.6c0-0.7-0.3-1.4-0.8-1.8C268.2,137.2,267.5,136.9,266.8,136.9z"/>
</g>
<g>
	<path class="st18" d="M331.1,137.1l-18.3-15.3c-1.2-1-3.3-1-4.6,0L290,137c-1.1,0.9-2,2.8-2,4.3v18.2c0,1.2,0,2.9,0.1,3.9   c0,1.5,1.5,2.7,3.2,2.7H330c1.7,0,3.1-1.4,3.1-3.2v-18c0-1.1,0-2.1,0-2.3v-1.2C333.1,139.9,332.2,138,331.1,137.1z"/>
	<path class="st6" d="M291.3,138.6l18.3-15.3c0.2-0.2,0.6-0.3,1-0.3s0.7,0.1,1,0.3l18.3,15.3c0.3,0.2,0.6,0.6,0.8,1l-16.1,9.5   l-1.7-1.4c-2.8-1.8-5.5-0.1-5.7,0.1l-1.5,1.3l-15.2-9.5C290.7,139.3,291,138.8,291.3,138.6z"/>
	<path class="st6" d="M290,162.9c0-1,0-2.4,0-3.4v-17.9l14.2,8.9L290,162.9z"/>
	<path class="st6" d="M291.4,164l16.8-14.7c0,0,1.8-1.2,3.6-0.1l18.1,14.8H291.4L291.4,164z"/>
	<path class="st6" d="M331.1,144.9v17.8L316,150.4l15.1-8.9v1C331.1,142.5,331.1,142.7,331.1,144.9z"/>
</g>
<g>
	<path class="st18" d="M355.7,137.7c-1,0-2-0.4-2.7-1.2c-0.6-0.7-1-1.5-1-2.4c0-2,1.6-3.6,3.7-3.6c2,0,3.7,1.6,3.7,3.6   c0,1-0.4,1.9-1.1,2.5C357.6,137.3,356.7,137.7,355.7,137.7z M355.7,132.8c-0.8,0-1.5,0.6-1.5,1.4c0,0.4,0.2,0.7,0.4,0.9   c0.5,0.6,1.6,0.6,2.2,0c0.3-0.3,0.4-0.6,0.4-1C357.2,133.4,356.5,132.8,355.7,132.8z"/>
	<path class="st18" d="M370,147.3c-2,0-3.7-1.6-3.7-3.6c0-0.8,0.3-1.7,0.8-2.3c1.3-1.6,4.1-1.6,5.6-0.1c0.6,0.6,0.9,1.5,0.9,2.3   C373.7,145.7,372.1,147.3,370,147.3z M370,142.4c-0.5,0-0.9,0.2-1.2,0.5c-0.2,0.2-0.3,0.5-0.3,0.9c0,0.8,0.7,1.4,1.5,1.4   s1.5-0.6,1.5-1.4c0-0.3-0.1-0.6-0.3-0.9C370.9,142.6,370.5,142.4,370,142.4z"/>
	<path class="st18" d="M380.1,139.1c-1,0-1.9-0.4-2.6-1.1c-0.7-0.6-1.1-1.5-1.1-2.5c0-2,1.6-3.6,3.7-3.6c2,0,3.7,1.6,3.7,3.6   c0,0.7-0.2,1.4-0.6,2C382.4,138.6,381.3,139.1,380.1,139.1z M380.1,134.2c-0.8,0-1.5,0.6-1.5,1.4c0,0.4,0.1,0.7,0.4,0.9   c0.7,0.7,1.9,0.5,2.4-0.2c0.2-0.2,0.2-0.5,0.2-0.8C381.6,134.8,380.9,134.2,380.1,134.2z"/>
	<polygon class="st18" points="367.1,144.2 357.6,135.1 358.9,133.4 359.3,133.7 368.6,142.6  "/>

		<rect x="384.7" y="134.3" transform="matrix(0.2693 -0.9631 0.9631 0.2693 149.0131 472.3196)" class="st18" width="2.1" height="7.3"/>

		<rect x="370.6" y="139.3" transform="matrix(0.7303 -0.6831 0.6831 0.7303 5.2554 293.9996)" class="st18" width="8.8" height="2.1"/>
	<polygon class="st18" points="347.4,142.3 346.2,140.5 346.5,140.3 353.1,135 353.7,135.8 354.7,136.4 354.4,136.6  "/>
	<path class="st18" d="M396.7,158.4H339V121h57.7V158.4z M341.1,156.3h53.4v-33.1h-53.4V156.3z"/>
	<path class="st18" d="M389.4,151.1h-43.1c-0.6,0-1.1-0.5-1.1-1.1v-23c0-0.6,0.5-1.1,1.1-1.1h43.1c0.6,0,1.1,0.5,1.1,1.1v23   C390.5,150.6,390,151.1,389.4,151.1z M347.3,148.9h41v-20.8h-41V148.9z"/>
	<path class="st18" d="M367.3,155c-0.8,0-1.4-0.6-1.4-1.4c0-0.8,0.6-1.4,1.4-1.4s1.4,0.6,1.4,1.4C368.7,154.4,368.1,155,367.3,155z    M367.3,153.3c-0.2,0-0.3,0.1-0.3,0.3c0,0.3,0.7,0.3,0.7,0C367.6,153.4,367.5,153.3,367.3,153.3z"/>
	<path class="st18" d="M378.7,166h-22.6c-0.5,0-0.9-0.3-1-0.7c-0.2-0.4,0-0.9,0.3-1.2l4.7-3.9v-1.6c0-0.6,0.5-1.1,1.1-1.1   s1.1,0.5,1.1,1.1v2.1c0,0.3-0.1,0.6-0.4,0.8l-2.8,2.3h16.8l-2.6-2.4c-0.2-0.2-0.3-0.4-0.4-0.7c-0.2-2.3-0.2-2.5,0.2-2.9   c0.6-0.7,1.9-0.2,1.9,0.7c0,0.1,0,0.2,0,0.2c0,0.3,0,0.9,0.1,1.3l4.4,4c0.3,0.3,0.4,0.8,0.3,1.2C379.5,165.7,379.1,166,378.7,166z"/>
</g>
<path class="st18" d="M426.6,120.7c-13.8,0-25,11.2-25,25c0,6,2.2,11.8,6.1,16.4c4.8,5.5,11.6,8.6,18.9,8.6s14.1-3.2,18.9-8.6  c3.9-4.5,6.1-10.4,6.1-16.4C451.6,131.9,440.4,120.7,426.6,120.7z M426.6,122.2c12.9,0,23.4,10.5,23.4,23.4c0,5.5-1.9,10.8-5.4,15  h-0.1h-0.1c-0.1,0-0.1,0-0.2-0.1c0,0,0,0-0.1,0s-0.2-0.1-0.3-0.1l0,0c-0.1,0-0.2-0.1-0.3-0.1h-0.1c-0.1,0-0.2-0.1-0.3-0.1  c0,0-0.1,0-0.1-0.1c-0.1,0-0.2-0.1-0.3-0.1c-0.1,0-0.1-0.1-0.2-0.1s-0.2-0.1-0.2-0.1c-0.1,0-0.1-0.1-0.2-0.1s-0.2-0.1-0.2-0.1  c-0.1,0-0.1-0.1-0.2-0.1s-0.2-0.1-0.2-0.1c-0.1,0-0.1-0.1-0.2-0.1s-0.2-0.1-0.3-0.1c-0.1,0-0.1-0.1-0.2-0.1s-0.2-0.1-0.3-0.1  c-0.1,0-0.2-0.1-0.2-0.1c-0.1,0-0.2-0.1-0.3-0.1c-0.1,0-0.2-0.1-0.3-0.1c-0.1,0-0.2-0.1-0.2-0.1c-0.1,0-0.2-0.1-0.3-0.1  c-0.1,0-0.2-0.1-0.3-0.1c-0.1,0-0.2-0.1-0.3-0.1c-0.1,0-0.2-0.1-0.2-0.1c-0.1-0.1-0.2-0.1-0.3-0.2c-0.1,0-0.1-0.1-0.2-0.1  c-0.4-0.2-0.7-0.4-1.1-0.6c-0.1,0-0.1-0.1-0.2-0.1c-0.1-0.1-0.2-0.1-0.3-0.2c-0.1,0-0.1-0.1-0.2-0.1c-0.1-0.1-0.2-0.1-0.3-0.2  c-0.1,0-0.1-0.1-0.2-0.1c-0.1-0.1-0.2-0.1-0.3-0.2c-0.1,0-0.2-0.1-0.2-0.1c-0.1-0.1-0.2-0.1-0.3-0.2c-0.1,0-0.1-0.1-0.2-0.1  c-0.1-0.1-0.2-0.1-0.2-0.2c-0.1,0-0.1-0.1-0.2-0.1c-0.1-0.1-0.2-0.1-0.2-0.2c-0.1,0-0.1-0.1-0.2-0.1c-0.1-0.1-0.1-0.1-0.2-0.2  c-0.1-0.1-0.1-0.1-0.2-0.1s-0.1-0.1-0.2-0.1c-0.1-0.1-0.1-0.1-0.2-0.2c-0.1,0-0.1-0.1-0.2-0.1c-0.1-0.1-0.1-0.1-0.2-0.2  c-0.1,0-0.1-0.1-0.2-0.1c-0.1-0.1-0.1-0.1-0.2-0.2l-0.1-0.1c-0.1-0.1-0.1-0.1-0.2-0.2l-0.1-0.1c-0.1-0.1-0.2-0.2-0.3-0.3  c-0.1-0.1-0.2-0.2-0.2-0.2c0.1,0,0.1-0.1,0.2-0.1c0.9-0.7,2.5-2,3.7-6c0.4-0.3,1.1-1.1,1.3-2.1c0.1-0.8-0.1-1.6-0.7-2.3  c0.1-0.4,0.2-1,0.2-1.9h3.1c1.1,0,2-0.9,2-2s-0.9-2-2-2h-3.3c-0.4-4.9-3-8.1-7.5-9.1c-0.2,0-0.4,0-0.6,0.1s-0.3,0.3-0.3,0.5  c-0.1,0.4-0.4,0.7-0.8,0.7s-0.8-0.3-0.8-0.7c0-0.2-0.1-0.4-0.3-0.5c-0.2-0.1-0.4-0.2-0.6-0.1c-4.4,1-7.1,4.2-7.5,9.1h-3  c-1.1,0-2,0.9-2,2s0.9,2,2,2h2.8c0,0.9,0.1,1.5,0.2,1.9c-0.5,0.8-0.8,1.5-0.7,2.3c0.1,1.1,0.9,1.8,1.3,2.1c1.2,4,2.9,5.3,3.7,6  c0.1,0,0.1,0.1,0.2,0.1c0,0.1-0.1,0.1-0.2,0.2c-0.1,0.1-0.2,0.2-0.3,0.3l-0.1,0.1c-0.1,0.1-0.1,0.1-0.2,0.2l-0.1,0.1  c-0.1,0.1-0.1,0.1-0.2,0.2l-0.1,0.1c-0.1,0.1-0.1,0.1-0.2,0.2c-0.1,0-0.1,0.1-0.2,0.1c-0.1,0.1-0.2,0.1-0.2,0.2  c-0.1,0-0.1,0.1-0.2,0.1c-0.1,0.1-0.2,0.1-0.2,0.2c-0.1,0-0.1,0.1-0.2,0.1c-0.1,0.1-0.2,0.1-0.3,0.2c-0.1,0-0.1,0.1-0.2,0.1  c-0.1,0.1-0.2,0.1-0.3,0.2c-0.1,0-0.1,0.1-0.2,0.1c-0.1,0.1-0.2,0.1-0.3,0.2c-0.1,0-0.1,0.1-0.2,0.1c-0.1,0.1-0.2,0.1-0.3,0.2  c-0.1,0-0.1,0.1-0.2,0.1c-0.1,0.1-0.2,0.1-0.3,0.2c-0.1,0-0.1,0.1-0.2,0.1c-0.1,0.1-0.3,0.2-0.4,0.2c0,0-0.1,0-0.1,0.1  c-0.2,0.1-0.3,0.2-0.5,0.3l0,0c-0.4,0.2-0.7,0.4-1.1,0.6c0,0-0.1,0-0.1,0.1c-0.1,0.1-0.3,0.2-0.4,0.2s-0.1,0.1-0.2,0.1  c-0.1,0.1-0.2,0.1-0.4,0.2c-0.1,0-0.1,0.1-0.2,0.1c-0.1,0.1-0.2,0.1-0.3,0.2c-0.1,0-0.1,0.1-0.2,0.1c-0.1,0.1-0.2,0.1-0.3,0.2  c-0.1,0-0.1,0.1-0.2,0.1c-0.1,0.1-0.2,0.1-0.3,0.2c-0.1,0-0.1,0.1-0.2,0.1s-0.2,0.1-0.3,0.1c-0.1,0-0.1,0.1-0.2,0.1  s-0.2,0.1-0.3,0.1c-0.1,0-0.1,0.1-0.2,0.1s-0.2,0.1-0.3,0.1c-0.1,0-0.1,0.1-0.2,0.1s-0.2,0.1-0.3,0.1c-0.1,0-0.1,0-0.2,0.1  c-0.1,0-0.2,0.1-0.3,0.1c0,0-0.1,0-0.1,0.1c-0.1,0-0.2,0.1-0.2,0.1s-0.1,0-0.1,0.1c-0.1,0-0.2,0.1-0.3,0.1H409  c-0.1,0-0.2,0.1-0.3,0.1h-0.1c-0.1,0-0.1,0-0.2,0.1h-0.1h-0.1c-3.5-4.2-5.4-9.5-5.4-15C403.2,132.8,413.7,122.2,426.6,122.2z   M426.6,162.4c-1-0.4-4.4-2.1-6.1-6.5c0.1-0.1,0.3-0.2,0.4-0.3l0.1-0.1c0.1-0.1,0.2-0.1,0.3-0.2l0.1-0.1c0.1-0.1,0.2-0.1,0.2-0.2  l0.1-0.1c0.1-0.1,0.1-0.1,0.2-0.2l0.1-0.1c0.1-0.1,0.1-0.1,0.2-0.2l0.1-0.1c0.1-0.1,0.2-0.2,0.3-0.3c0.3-0.3,0.7-0.7,0.8-1.2  c0-0.1,0-0.1,0-0.2c0-0.6-0.4-0.9-0.9-1.2c-0.8-0.6-2.2-1.8-3.3-5.5c-0.1-0.2-0.2-0.3-0.3-0.4c0,0-0.7-0.5-0.8-1.2  c-0.1-0.5,0.1-0.9,0.6-1.5c0.2-0.3,0.3-0.6,0.1-0.9c0,0,0-0.1-0.1-0.2c0-0.2-0.1-0.6-0.1-1.2h15.7c0,0.9-0.1,1.2-0.2,1.4l0,0  c-0.2,0.3-0.2,0.7,0.1,0.9c0.4,0.5,0.6,1,0.6,1.4c-0.1,0.7-0.8,1.2-0.8,1.2c-0.2,0.1-0.3,0.3-0.3,0.4c-1.1,3.7-2.5,4.9-3.3,5.5  c-0.4,0.3-0.8,0.7-0.9,1.2c0,0.6,0.4,1,0.8,1.4c0.1,0.1,0.2,0.2,0.3,0.3l0.1,0.1c0.1,0.1,0.1,0.1,0.2,0.2l0.1,0.1  c0.1,0.1,0.1,0.1,0.2,0.2l0.1,0.1c0.1,0.1,0.2,0.1,0.2,0.2l0.1,0.1c0.1,0.1,0.2,0.1,0.3,0.2c0,0,0.1,0,0.1,0.1  c0.1,0.1,0.2,0.2,0.4,0.3C431,160.3,427.6,162,426.6,162.4z M418.9,136.1c0.3-2.9,1.5-6.2,5.6-7.4c0.4,0.7,1.2,1.2,2,1.2  c0.9,0,1.6-0.5,2-1.2c4.1,1.2,5.4,4.5,5.6,7.4H418.9z M417.9,137.6c0.1,0,0.1,0,0.2,0h17c0.1,0,0.1,0,0.2,0h3.8  c0.3,0,0.6,0.3,0.6,0.6s-0.3,0.6-0.6,0.6h-24.7c-0.3,0-0.6-0.3-0.6-0.6s0.3-0.6,0.6-0.6H417.9z M409.7,161.9L409.7,161.9  C409.7,161.9,409.8,161.9,409.7,161.9c0.2-0.1,0.3-0.1,0.4-0.2c0,0,0.1,0,0.1-0.1c0.1,0,0.2-0.1,0.3-0.1c0,0,0.1,0,0.1-0.1  c0.1,0,0.2-0.1,0.3-0.1c0,0,0.1,0,0.2-0.1c0.1,0,0.2-0.1,0.3-0.1c0,0,0.1,0,0.1-0.1c0.3-0.1,0.6-0.3,0.9-0.4c0.1,0,0.1-0.1,0.2-0.1  c0.1-0.1,0.2-0.1,0.3-0.2c0.1,0,0.1-0.1,0.2-0.1c0.1-0.1,0.2-0.1,0.3-0.2c0.1,0,0.1-0.1,0.2-0.1c0.1-0.1,0.2-0.1,0.3-0.2  c0.1,0,0.1-0.1,0.2-0.1c0.1-0.1,0.3-0.1,0.4-0.2c0,0,0.1,0,0.1-0.1c0.2-0.1,0.3-0.2,0.5-0.3c0,0,0.1,0,0.1-0.1  c0.1-0.1,0.3-0.1,0.4-0.2c0.1,0,0.1-0.1,0.2-0.1c0.1-0.1,0.2-0.1,0.3-0.2c0.1,0,0.1-0.1,0.2-0.1c0.1-0.1,0.2-0.1,0.3-0.2  c0.1,0,0.1-0.1,0.2-0.1c0.1-0.1,0.2-0.1,0.4-0.2c0.1,0,0.1-0.1,0.2-0.1c0.2-0.1,0.3-0.2,0.5-0.3l0,0c0.2-0.1,0.3-0.2,0.5-0.3  c0.1,0,0.1-0.1,0.2-0.1c0.1-0.1,0.2-0.1,0.3-0.2c0.1,0,0.1-0.1,0.2-0.1l0.1-0.1c2.2,5.4,6.7,7,7.1,7.2c0.1,0,0.2,0,0.3,0l0,0l0,0  c0.1,0,0.2,0,0.3,0c0.4-0.1,5-1.8,7.1-7.2l0.1,0.1c0.1,0,0.1,0.1,0.2,0.1c0.1,0.1,0.2,0.1,0.3,0.2c0.1,0,0.1,0.1,0.2,0.1  c0.1,0.1,0.2,0.2,0.4,0.2c0.1,0.1,0.2,0.1,0.3,0.2c0.1,0.1,0.2,0.1,0.3,0.2c0.1,0.1,0.2,0.1,0.3,0.2c0.1,0,0.2,0.1,0.2,0.1  c0.1,0.1,0.2,0.1,0.3,0.2c0.1,0,0.2,0.1,0.2,0.1c0.1,0.1,0.2,0.1,0.3,0.2c0.1,0,0.2,0.1,0.2,0.1c0.1,0.1,0.2,0.1,0.3,0.2  c0.1,0,0.1,0.1,0.2,0.1c0.3,0.1,0.5,0.3,0.8,0.4l0,0c0.1,0.1,0.2,0.1,0.3,0.2c0.1,0,0.1,0.1,0.2,0.1c0.1,0.1,0.2,0.1,0.3,0.2  c0.1,0,0.1,0.1,0.2,0.1c0.1,0.1,0.2,0.1,0.3,0.2c0.1,0,0.1,0.1,0.2,0.1c0.1,0.1,0.2,0.1,0.3,0.2c0,0,0.1,0,0.1,0.1  c0.4,0.2,0.7,0.4,1.1,0.5c0,0,0.1,0,0.1,0.1c0.1,0,0.2,0.1,0.3,0.1c0,0,0.1,0,0.1,0.1c0.1,0,0.2,0.1,0.3,0.1c0.1,0,0.1,0,0.1,0.1  c0.1,0,0.2,0.1,0.2,0.1s0.1,0,0.1,0.1c0.1,0,0.2,0.1,0.2,0.1h0.1c0.1,0,0.1,0.1,0.2,0.1c-4.4,4.6-10.5,7.2-16.9,7.2  C420.2,169.1,414.1,166.5,409.7,161.9z"/>
<g>
	<g>
		<g>
			<g>
				<g>
					<g>
						<defs>
							<rect id="SVGID_5_" x="486" y="95" width="23" height="13"/>
						</defs>
						<clipPath id="SVGID_6_">
							<use xlink:href="#SVGID_5_" style="overflow:visible;"/>
						</clipPath>
						<path class="st19" d="M498,99h-2v5h2c0.6,0,1-0.4,1-1v-3C499,99.4,498.6,99,498,99"/>
					</g>
				</g>
			</g>
		</g>
	</g>
	<g>
		<g>
			<g>
				<g>
					<g>
						<defs>
							<rect id="SVGID_7_" x="486" y="95" width="23" height="13"/>
						</defs>
						<clipPath id="SVGID_8_">
							<use xlink:href="#SVGID_7_" style="overflow:visible;"/>
						</clipPath>
						<path class="st20" d="M492,99h-2v2h2c0.6,0,1-0.4,1-1S492.6,99,492,99"/>
					</g>
				</g>
			</g>
		</g>
	</g>
	<g>
		<g>
			<g>
				<g>
					<g>
						<defs>
							<rect id="SVGID_9_" x="486" y="95" width="23" height="13"/>
						</defs>
						<clipPath id="SVGID_10_">
							<use xlink:href="#SVGID_9_" style="overflow:visible;"/>
						</clipPath>
						<path class="st21" d="M506,95h-17c-1.7,0-3,1.3-3,3v7c0,1.7,1.3,3,3,3h17c1.7,0,3-1.3,3-3v-7C509,96.3,507.7,95,506,95         M492,102h-2v3h-1v-5v-2h3c1.1,0,2,0.9,2,2S493.1,102,492,102 M500,103c0,1.1-0.9,2-2,2h-3v-7h3c1.1,0,2,0.9,2,2V103z M506,99        h-4v2h3v1h-3v3h-1v-7h5V99z"/>
					</g>
				</g>
			</g>
		</g>
	</g>
</g>
<g id="Rounded_Rectangle_2_copy_5">
	<g>
		<path class="st17" d="M508.6,83h-20.2c-0.5,0-0.9,0.4-0.9,1s0.4,1,0.9,1h20.2c0.5,0,0.9-0.4,0.9-1S509.1,83,508.6,83z M508.6,75    h-20.2c-0.5,0-0.9,0.4-0.9,1s0.4,1,0.9,1h20.2c0.5,0,0.9-0.4,0.9-1S509.1,75,508.6,75z M488.4,69h20.2c0.5,0,0.9-0.4,0.9-1    s-0.4-1-0.9-1h-20.2c-0.5,0-0.9,0.4-0.9,1S487.9,69,488.4,69z"/>
	</g>
</g>
<g id="Rounded_Rectangle_2_copy_5_1_">
	<g>
		<path class="st6" d="M317.8,104.5h-20.2c-0.5,0-0.9,0.4-0.9,1s0.4,1,0.9,1h20.2c0.5,0,0.9-0.4,0.9-1S318.3,104.5,317.8,104.5z     M317.8,96.5h-20.2c-0.5,0-0.9,0.4-0.9,1s0.4,1,0.9,1h20.2c0.5,0,0.9-0.4,0.9-1C318.7,96.9,318.3,96.5,317.8,96.5z M297.6,90.5    h20.2c0.5,0,0.9-0.4,0.9-1s-0.4-1-0.9-1h-20.2c-0.5,0-0.9,0.4-0.9,1S297.1,90.5,297.6,90.5z"/>
	</g>
</g>
<g>
	<path class="st22" d="M529.4,70l0.7,0.7l-3.5,3.5l-0.7-0.7L529.4,70z"/>
	<path class="st22" d="M523,70.7l0.7-0.7l3.5,3.5l-0.7,0.7L523,70.7z"/>
</g>
<g>
	<path class="st22" d="M523.7,85.2l-0.7-0.7l3.5-3.5l0.7,0.7L523.7,85.2z"/>
	<path class="st22" d="M530.1,84.5l-0.7,0.7l-3.5-3.5l0.7-0.7L530.1,84.5z"/>
</g>
<g>
	<path class="st23" d="M63.8,180.5c-1.8,0-3.4,0.6-4.6,1.8c-1.3,1.2-1.9,2.8-1.9,4.7s0.6,3.5,1.9,4.7c1.3,1.2,2.8,1.8,4.6,1.8   s3.4-0.6,4.6-1.8c1.3-1.2,1.9-2.8,1.9-4.7s-0.6-3.5-1.9-4.7C67.2,181.1,65.6,180.5,63.8,180.5z M66.5,189.9   c-0.7,0.7-1.7,1.1-2.8,1.1c-1.1,0-2-0.4-2.8-1.1c-0.8-0.8-1.2-1.7-1.2-2.9s0.4-2.1,1.2-2.8c0.7-0.7,1.7-1.1,2.8-1.1   c1.1,0,2,0.4,2.8,1.1c0.8,0.7,1.1,1.7,1.1,2.8C67.7,188.2,67.3,189.2,66.5,189.9z"/>
	<path class="st23" d="M100,180.5c-1.8,0-3.4,0.6-4.6,1.8c-1.3,1.2-1.9,2.8-1.9,4.7s0.6,3.5,1.9,4.7s2.8,1.8,4.6,1.8   c1.8,0,3.4-0.6,4.6-1.8c1.3-1.2,1.9-2.8,1.9-4.7s-0.6-3.5-1.9-4.7C103.4,181.1,101.9,180.5,100,180.5z M102.8,189.9   c-0.7,0.7-1.7,1.1-2.8,1.1c-1.1,0-2-0.4-2.8-1.1c-0.8-0.8-1.1-1.7-1.1-2.9s0.4-2.1,1.1-2.8c0.8-0.7,1.7-1.1,2.8-1.1   c1.1,0,2,0.4,2.8,1.1c0.8,0.7,1.1,1.7,1.1,2.8C103.9,188.2,103.6,189.2,102.8,189.9z"/>
	<path class="st23" d="M134.6,182.3c-1.3-1.2-2.8-1.8-4.6-1.8s-3.4,0.6-4.6,1.8c-1.3,1.2-1.9,2.8-1.9,4.7s0.6,3.5,1.9,4.7   s2.8,1.8,4.6,1.8s3.4-0.6,4.6-1.8c1.3-1.2,1.9-2.8,1.9-4.7S135.9,183.6,134.6,182.3z M132.7,189.9c-0.7,0.7-1.7,1.1-2.8,1.1   s-2-0.4-2.8-1.1c-0.8-0.8-1.1-1.7-1.1-2.9s0.4-2.1,1.1-2.8s1.7-1.1,2.8-1.1s2,0.4,2.8,1.1c0.8,0.7,1.1,1.7,1.1,2.8   C133.9,188.2,133.5,189.2,132.7,189.9z"/>
	<path class="st23" d="M40.5,180.6c-1.5,0-3.3,0.6-4.4,1.8c-1.1,1.2-1.9,2.5-1.9,5.2v10.1c0,0.7,0.6,1.4,1.3,1.4s1.3-0.6,1.3-1.4   v-10.1c0-1.5,0.4-2.6,1.1-3.3c0.7-0.7,1.8-1.1,2.6-1.1c1.1,0,2,0.4,2.8,1.1c0.8,0.7,1.1,1.7,1.1,2.8c0,1.2-0.4,2.2-1.1,2.9   c-0.7,0.7-1.7,1.1-2.8,1.1h-0.7c-0.7,0-1.3,0.6-1.3,1.3s0.6,1.3,1.3,1.3h0.7c1.8,0,3.4-0.6,4.6-1.8c1.3-1.2,1.9-2.8,1.9-4.8   c0-1.9-0.6-3.5-1.9-4.7C43.9,181.2,42.4,180.6,40.5,180.6z"/>
	<path class="st23" d="M120,175.2c-0.7,0-1.3,0.6-1.3,1.4v10.1c0,1.6-0.4,2.6-1.1,3.3s-1.8,1.1-2.6,1.1c-1.1,0-2-0.4-2.8-1.1   c-0.8-0.7-1.1-1.7-1.1-2.8c0-1.2,0.4-2.1,1.1-2.9c0.7-0.7,1.7-1.1,2.8-1.1h0.7c0.7,0,1.3-0.6,1.3-1.3s-0.6-1.3-1.3-1.3H115   c-1.8,0-3.4,0.6-4.6,1.8c-1.3,1.2-1.9,2.8-1.9,4.8c0,1.9,0.6,3.5,1.9,4.7s2.8,1.8,4.6,1.8c1.5,0,3.3-0.6,4.4-1.8   c1.1-1.1,1.9-2.5,1.9-5.2v-10.1C121.3,175.8,120.7,175.2,120,175.2z"/>
	<path class="st23" d="M55.2,180.7h-0.3c-1.3,0-2.3,0.5-3,2V182c0-0.7-0.6-1.4-1.3-1.4s-1.3,0.6-1.3,1.4v10.1c0,0.7,0.6,1.4,1.3,1.4   s1.3-0.6,1.3-1.4v-3.5c0-3.6,1.3-5.4,3.3-5.4c0.7,0,1.3-0.5,1.3-1.2C56.5,181.2,55.9,180.7,55.2,180.7z"/>
	<path class="st23" d="M86,180.6c-1.5,0-3.1,0.6-4.1,2.1c-1-1.4-2.6-2.1-4.1-2.1s-2.8,0.5-3.8,1.6s-1.6,2.5-1.6,4.2v5.8   c0,0.7,0.6,1.4,1.3,1.4s1.3-0.6,1.3-1.4v-5.8c0-0.9,0.3-1.7,0.8-2.3s1.2-0.9,2-0.9s1.4,0.3,2,0.9c0.5,0.6,0.8,1.3,0.8,2.3v5.8   c0,0.7,0.6,1.4,1.3,1.4c0.7,0,1.3-0.6,1.3-1.4v-5.8c0-0.9,0.3-1.7,0.8-2.3s1.2-0.9,2-0.9s1.4,0.3,2,0.9c0.5,0.6,0.8,1.3,0.8,2.3   v5.8c0,0.7,0.6,1.4,1.3,1.4c0.7,0,1.3-0.6,1.3-1.4v-5.8c0-1.7-0.5-3.1-1.6-4.2C88.8,181.1,87.5,180.6,86,180.6z"/>
	<path class="st23" d="M21.7,185.7c-0.7,0-1.3,0.6-1.3,1.3c0,1.7-0.6,3.2-1.8,4.4c-1.2,1.2-2.7,1.8-4.4,1.8l0,0   c-1.7,0-3.2-0.6-4.4-1.8S8,188.7,8,187s0.6-3.2,1.8-4.4s2.7-1.8,4.4-1.8c0.7,0,1.3-0.6,1.3-1.3s-0.6-1.3-1.3-1.3   c-1.7,0-3.3,0.5-4.6,1.3c-1,0.6-2.2-0.3-2-1.4c0.2-1-0.1-2.1-0.8-2.9c-1.2-1.2-3.2-1.2-4.4,0s-1.2,3.2,0,4.4   c0.8,0.8,1.9,1.1,2.8,0.8c1.1-0.2,2,1,1.4,2c-0.9,1.4-1.3,3-1.3,4.7c0,2.4,0.9,4.6,2.6,6.3s3.9,2.6,6.3,2.6l0,0   c2.4,0,4.6-0.9,6.3-2.6c1.7-1.7,2.6-3.9,2.6-6.3C23.1,186.3,22.5,185.7,21.7,185.7z"/>
	<path class="st23" d="M20.2,175.2c-0.8,0.8-1.2,1.9-1.2,3c0,3-2.2,5.5-5.1,5.8c-0.7,0.1-1.3,0.4-1.9,0.9c-1.2,1.2-1.2,3.2,0,4.4   s3.2,1.2,4.4,0c0.5-0.5,0.8-1.2,0.9-1.9c0.3-2.9,2.8-5.2,5.8-5.1c1.1,0,2.2-0.4,3-1.2c1.6-1.6,1.6-4.2,0-5.9   C24.4,173.6,21.8,173.6,20.2,175.2z"/>
</g>
<g>
	<path class="st6" d="M220.1,181.9c-2.3,0-4.1,0.7-5.7,2.2c-1.5,1.4-2.3,3.3-2.3,5.6s0.8,4.2,2.3,5.7s3.4,2.2,5.6,2.2   c2.2,0,4.1-0.7,5.6-2.2c1.6-1.5,2.4-3.4,2.4-5.7s-0.8-4.2-2.3-5.6C224.2,182.6,222.4,181.9,220.1,181.9z M223.5,193.1   c-0.9,0.9-2,1.3-3.4,1.3c-1.3,0-2.5-0.4-3.4-1.3c-0.9-0.9-1.4-2.1-1.4-3.5s0.5-2.5,1.4-3.4s2-1.3,3.4-1.3c1.3,0,2.5,0.4,3.4,1.3   c0.9,0.9,1.4,2,1.4,3.4C224.9,191.1,224.4,192.2,223.5,193.1z"/>
	<path class="st6" d="M264.4,181.9c-2.3,0-4.1,0.7-5.7,2.2c-1.5,1.4-2.3,3.3-2.3,5.6s0.8,4.2,2.4,5.7c1.5,1.5,3.4,2.2,5.6,2.2   s4.1-0.7,5.6-2.2c1.6-1.5,2.4-3.4,2.4-5.7s-0.8-4.2-2.3-5.6C268.6,182.6,266.7,181.9,264.4,181.9z M267.8,193.1   c-0.9,0.9-2,1.3-3.4,1.3c-1.3,0-2.5-0.4-3.4-1.3c-0.9-0.9-1.4-2.1-1.4-3.5s0.5-2.5,1.4-3.4s2-1.3,3.4-1.3c1.3,0,2.5,0.4,3.4,1.3   c0.9,0.9,1.4,2,1.4,3.4C269.2,191.1,268.7,192.2,267.8,193.1z"/>
	<path class="st6" d="M306.7,184c-1.5-1.5-3.4-2.2-5.7-2.2c-2.3,0-4.1,0.7-5.7,2.2c-1.5,1.4-2.3,3.3-2.3,5.6s0.8,4.2,2.4,5.7   c1.5,1.5,3.4,2.2,5.6,2.2s4.1-0.7,5.6-2.2c1.6-1.5,2.4-3.4,2.4-5.7S308.2,185.5,306.7,184z M304.4,193.1c-0.9,0.9-2,1.3-3.4,1.3   c-1.3,0-2.5-0.4-3.4-1.3c-0.9-0.9-1.4-2.1-1.4-3.5s0.5-2.5,1.4-3.4s2-1.3,3.4-1.3c1.3,0,2.5,0.4,3.4,1.3c0.9,0.9,1.4,2,1.4,3.4   C305.8,191.1,305.3,192.2,304.4,193.1z"/>
	<path class="st6" d="M191.7,181.9c-1.8,0-4,0.8-5.4,2.2s-2.3,3-2.3,6.2v12.1c0,0.9,0.7,1.6,1.6,1.6c0.9,0,1.6-0.8,1.6-1.6v-12.1   c0-1.9,0.5-3.1,1.4-4s2.2-1.3,3.2-1.3c1.3,0,2.5,0.4,3.4,1.3c0.9,0.9,1.4,2,1.4,3.4s-0.5,2.6-1.4,3.5s-2,1.3-3.4,1.3h-0.9   c-0.9,0-1.6,0.7-1.6,1.6c0,0.9,0.8,1.6,1.6,1.6h0.9c2.2,0,4.1-0.7,5.6-2.2c1.6-1.5,2.4-3.4,2.4-5.7s-0.8-4.2-2.3-5.6   C195.9,182.6,194,181.9,191.7,181.9z"/>
	<path class="st6" d="M288.8,175.4c-0.9,0-1.6,0.8-1.6,1.6v12.1c0,1.9-0.5,3.1-1.4,4s-2.1,1.3-3.2,1.3c-1.3,0-2.5-0.4-3.4-1.3   c-0.9-0.9-1.4-2-1.4-3.4s0.5-2.6,1.4-3.5s2-1.3,3.4-1.3h0.9c0.9,0,1.6-0.7,1.6-1.5c0-0.9-0.8-1.6-1.6-1.6h-0.9   c-2.2,0-4.1,0.7-5.6,2.2c-1.6,1.5-2.4,3.4-2.4,5.7s0.8,4.2,2.3,5.6c1.5,1.5,3.4,2.2,5.7,2.2c1.8,0,4-0.8,5.4-2.2s2.3-3,2.3-6.2V177   C290.4,176.2,289.7,175.4,288.8,175.4z"/>
	<path class="st6" d="M209.7,182h-0.4c-1.6,0-2.8,0.6-3.7,2.4v-0.8c0-0.9-0.7-1.6-1.6-1.6c-0.9,0-1.6,0.8-1.6,1.6v12.1   c0,0.9,0.7,1.6,1.6,1.6c0.9,0,1.6-0.8,1.6-1.6v-4.2c0-4.3,1.6-6.5,4.1-6.5c0.9,0,1.6-0.7,1.6-1.5C211.3,182.7,210.5,182,209.7,182z   "/>
	<path class="st6" d="M247.2,181.9c-1.9,0-3.7,0.8-5,2.5c-1.3-1.7-3.2-2.5-5-2.5c-1.9,0-3.4,0.6-4.7,1.9c-1.3,1.3-1.9,2.9-1.9,5v7   c0,0.9,0.7,1.6,1.6,1.6c0.9,0,1.6-0.8,1.6-1.6v-7c0-1.1,0.3-2,1-2.7s1.5-1.1,2.4-1.1s1.8,0.4,2.4,1.1c0.7,0.7,1,1.6,1,2.7v7   c0,0.9,0.7,1.6,1.6,1.6c0.9,0,1.6-0.8,1.6-1.6v-7c0-1.1,0.3-2,1-2.7c0.6-0.7,1.5-1.1,2.4-1.1c1,0,1.8,0.4,2.4,1.1   c0.7,0.7,1,1.6,1,2.7v7c0,0.9,0.7,1.6,1.6,1.6c0.9,0,1.6-0.8,1.6-1.6v-7c0-2.1-0.6-3.7-1.9-5C250.7,182.5,249.1,181.9,247.2,181.9z   "/>
	<path class="st6" d="M168.7,188.1c-0.9,0-1.6,0.7-1.6,1.6c0,2-0.8,3.9-2.2,5.3c-1.4,1.4-3.3,2.2-5.3,2.2l0,0c-2,0-3.9-0.8-5.3-2.2   c-1.4-1.4-2.2-3.3-2.2-5.3s0.8-3.9,2.2-5.3c1.4-1.4,3.3-2.2,5.3-2.2c0.9,0,1.6-0.7,1.6-1.6c0-0.9-0.7-1.6-1.6-1.6   c-2,0-4,0.6-5.7,1.6c-1.2,0.7-2.7-0.3-2.4-1.7c0.3-1.2-0.1-2.5-1-3.4c-1.5-1.5-3.9-1.5-5.3,0c-1.5,1.5-1.5,3.8,0,5.3   c0.9,0.9,2.3,1.3,3.5,1c1.4-0.3,2.4,1.2,1.7,2.4c-1,1.7-1.6,3.6-1.6,5.6c0,2.9,1.1,5.5,3.2,7.6c2,2,4.8,3.1,7.7,3.1l0,0   c2.9,0,5.6-1.1,7.7-3.1c2-2,3.2-4.7,3.2-7.6C170.4,188.8,169.6,188.1,168.7,188.1z"/>
	<path class="st6" d="M166.9,175.5c-1,1-1.5,2.3-1.5,3.6c0.1,3.6-2.6,6.6-6.2,6.9c-0.8,0.1-1.6,0.4-2.3,1.1c-1.5,1.5-1.5,3.8,0,5.3   s3.9,1.5,5.3,0c0.6-0.6,1-1.4,1.1-2.3c0.4-3.5,3.4-6.2,7-6.1c1.3,0,2.6-0.5,3.6-1.5c2-1.9,2-5.1,0-7   C172,173.5,168.8,173.5,166.9,175.5z"/>
</g>
<g>
	<path class="st6" d="M530.4,92l0.7,0.7l-3.5,3.6l-0.7-0.7L530.4,92z"/>
	<path class="st6" d="M524,92.7l0.7-0.7l3.6,3.6l-0.7,0.7L524,92.7z"/>
</g>
<g>
	<path class="st18" d="M530.4,103l0.7,0.7l-3.5,3.6l-0.7-0.7L530.4,103z"/>
	<path class="st18" d="M524,103.7l0.7-0.7l3.6,3.6l-0.7,0.7L524,103.7z"/>
</g>
<circle class="st24" cx="481.5" cy="187.9" r="21.7"/>
<g>
	<path class="st25" d="M431.9,194v20c-11,0-20-9-20-20s9-20,20-20V194z"/>
</g>
<g>
	<path class="st0" d="M459,187.9c0-12.4,10.1-22.5,22.5-22.5s22.5,10.1,22.5,22.5s-10.1,22.5-22.5,22.5S459,200.3,459,187.9z    M460.9,187.9c0,11.3,9.2,20.6,20.6,20.6c11.3,0,20.6-9.2,20.6-20.6c0-11.4-9.3-20.6-20.6-20.6   C470.2,167.3,460.9,176.6,460.9,187.9z"/>
	<path class="st0" d="M475.4,187.1l9.1-9.1c0.4-0.4,1.1-0.4,1.5,0s0.4,1.1,0,1.5l-8.4,8.4l8.4,8.4c0.4,0.4,0.4,1.1,0,1.5   s-1.1,0.4-1.5,0l-9.1-9.1C475,188.2,475,187.6,475.4,187.1z"/>
</g>
<path class="st22" d="M36,224.5v-9H13v9H1v31h47v-31H36z M28.8,236.2c-0.2-0.5-0.5-1-0.8-1.4c-1.8-2.4-4.2-2.4-6.1,0  c-0.3,0.4-0.6,0.9-0.8,1.3c-7.4-1-14.5-6.6-16.9-9.6h40.9C42.9,229.5,36.1,234.8,28.8,236.2z M27.2,237.4c-0.1,0.5-1.2,2.4-2.3,2.4  c-0.5,0-1-0.4-1.5-1c-0.5-0.7-0.7-1.2-0.8-1.3c0-0.2,0.3-0.8,0.8-1.4c0.5-0.7,1.1-1.1,1.6-1.1c0.4,0,1,0.4,1.5,1.1  C27,236.7,27.2,237.3,27.2,237.4z M30,224.5H19v-3h11V224.5z M15,217.5h19v7h-2v-5H17v5h-2V217.5z M3,253.5v-25.4  c2,2.5,10,8.9,18,10.1c0.2,0.6,0.6,1.3,1,1.8c0.9,1.1,2,1.8,3,1.8c2,0,3.3-2.1,3.8-3.5c7.7-1.4,15.2-7.6,17.2-10.1v25.3L3,253.5  L3,253.5z"/>
<g>
	<path class="st22" d="M106.5,216.4h-51v33h19.1c0,0-0.1,0-0.1,0.1v1.4l-4.1,3.5c-0.3,0.3-0.4,0.9-0.3,1.2c0.1,0.4,0.5,0.8,0.9,0.8   h20.1c0.4,0,0.8-0.4,0.9-0.8c0.1-0.4,0-0.9-0.3-1.1l-3.9-3.6c0-0.4-0.1-0.9-0.1-1.2c0-0.1,0-0.1,0-0.2c0-0.1,0-0.1,0-0.1h18.8   C106.5,249.4,106.5,216.4,106.5,216.4z M85.9,251.4c0,0.2,0.1,0.6,0.3,0.8l2.3,2.2H73.6l2.5-2.2c0.2-0.2,0.4-0.6,0.4-0.9v-1.8   c0-0.1,0-0.1-0.1-0.1h9.4C85.8,249.4,85.8,250.2,85.9,251.4z M104.5,247.4h-47v-29h47V247.4z"/>
	<path class="st22" d="M100.5,221.4c0-0.5-0.4-1-1-1h-38c-0.5,0-1,0.4-1,1v20.1c0,0.5,0.4,1,1,1h38.1c0.5,0,1-0.4,1-1L100.5,221.4   L100.5,221.4z M62.5,222.4h37v18h-37V222.4z"/>
	<path class="st22" d="M81,243.8c-0.7,0-1.3,0.5-1.3,1.2s0.6,1.2,1.3,1.2c0.7,0,1.3-0.6,1.3-1.2C82.3,244.3,81.7,243.8,81,243.8z    M80.7,245c0-0.1,0.1-0.3,0.3-0.3s0.3,0.1,0.3,0.3C81.3,245.3,80.7,245.3,80.7,245z"/>
	<rect x="65.5" y="224.4" class="st22" width="13" height="2"/>
	<rect x="65.5" y="228.4" class="st22" width="13" height="3"/>
	<rect x="65.5" y="233.4" class="st22" width="13" height="4"/>
	<rect x="82.5" y="224.4" class="st22" width="13" height="2"/>
	<rect x="82.5" y="228.4" class="st22" width="13" height="3"/>
	<rect x="82.5" y="233.4" class="st22" width="13" height="4"/>
</g>
<path class="st22" d="M155.2,224.2v-3.6v-0.1v-2.1c1,0.1,2.1,0.5,2.2,0.9c0.1,0.2-0.1,0.8-1.2,1.9c-0.4,0.3-0.4,0.9,0,1.3  c0.2,0.2,0.4,0.3,0.7,0.3c0.2,0,0.5-0.1,0.6-0.2c0.6-0.5,2.4-2.2,1.8-3.9c-0.7-1.9-4-2.2-4.6-2.2c-0.3,0-0.7,0.1-0.9,0.4  c-0.2,0.2-0.5,0.4-0.5,0.7v3v0.1v0.4c-1,0-4,0.2-7,0.8v-0.1c1-0.1,0.8-0.6,0.8-0.9c0-0.4-0.3-1-0.9-1h-4.6c-0.5,0-1,0.6-1,1  s0.4,1,1,1h2.7v0.5c-6,1.6-14.2,5.4-17.5,14c-0.1,0-0.1,0-0.2,0c-5.3,0-9.5,4.3-9.5,9.5c0,5.3,4.3,9.6,9.6,9.6s9.6-4.3,9.6-9.6  c0-4.5-3.2-8.3-7.4-9.3C134,224,150.4,223,153.4,223v1.3c-8,0.5-15,7.5-15,16.1c0,8.9,7.3,16.2,16.2,16.2s16.1-7.2,16.1-16.2  C170.5,231.7,164.2,224.6,155.2,224.2z M126.9,246c0,0.3-0.3,0.6-0.6,0.6s-0.6-0.3-0.6-0.6s0.3-0.6,0.6-0.6  C126.7,245.4,126.9,245.6,126.9,246z M134.2,245.8c0,4.2-3.4,7.6-7.6,7.6c-4.2,0-7.6-3.4-7.6-7.6c0-4.1,3.2-7.4,7.3-7.6  c-0.5,1.7-0.9,3.4-1,5.4h-0.1v1.1c0,0.3-0.5,0.7-0.5,1.2c0,0.9,0.8,1.6,1.6,1.6c0.9,0,1.5-0.7,1.5-1.6c0-0.5,0.4-0.9-0.6-1.2v-1h0.2  c0.1-2,0.4-3.7,0.8-5.3C131.6,239.3,134.2,242.1,134.2,245.8z M154.4,239.7c0.3,0,0.6,0.3,0.6,0.6s-0.3,0.6-0.6,0.6  s-0.6-0.3-0.6-0.6C153.8,240,154.1,239.7,154.4,239.7z M154.4,254.5c-7.9,0-14.4-6.4-14.4-14.2c0-7.5,6.1-13.6,13.1-14.2v12.5  c0,0.2,0.2,0.3,0.2,0.5c-0.4,0.3-0.6,0.7-0.6,1.3c0,0.9,0.7,1.6,1.6,1.6s1.6-0.7,1.6-1.6c0-0.6-0.4-1.1-0.8-1.3c0.1-0.1,0-0.2,0-0.4  v-12.6c8,0.5,13.4,6.6,13.4,14.2C168.6,248.1,162.3,254.5,154.4,254.5z"/>
<g>
	<path class="st22" d="M188.7,240.7c0,1.3-0.1,2.6,0,3.9c0.1,1.3,1.4,2.1,2.9,2.1c5.4,0,10.8,0,16.2,0c2.3,0,4.5,0,6.8,0   c2.7,0,4.8,2,4.9,4.7c0,2.6-2,4.8-4.6,4.9c-2.7,0.1-4.9-1.9-5-4.6c0-0.9,0.3-1.9,0.5-2.8c-3.7,0-7.4,0-11.2,0   c1.2,2.7,0.9,5-1.7,6.7c-1.7,1.1-4,0.9-5.5-0.4c-1.8-1.5-2.2-3.5-1.1-6.3c-0.2-0.1-0.3-0.1-0.5-0.2c-2.5-0.6-3.9-2.4-3.9-4.9   c0-8.6,0-17.2,0-25.8c0-0.8-0.3-1.2-1-1.5c-1.6-0.6-3.2-1.3-4.8-2c-0.9-0.4-1.2-0.9-0.9-1.5s0.9-0.8,1.7-0.4c2,0.8,4,1.7,6,2.5   c0.7,0.3,1,0.8,1,1.6c0,1.2,0,2.3,0,3.5c0,0.5,0.2,0.6,0.6,0.7c8.3,1.1,16.5,2.3,24.8,3.4c1.7,0.2,3.4,0.5,5.1,0.7   c1.2,0.2,1.5,0.5,1.5,1.7c0,3.2,0,6.3,0,9.5c0,3-2.1,5.1-5.1,5.1c-8,0-16,0-24,0C190.7,241.2,189.7,240.9,188.7,240.7z    M188.7,222.9c0,0.3-0.1,0.6-0.1,0.8c0,4.1,0,8.3,0,12.4c0,1.8,1.1,2.9,3,2.9c1.5,0,2.9,0,4.4,0c6.5,0,13,0,19.5,0   c1.8,0,3-1.1,3-2.8c0-2.9,0-5.8,0-8.6c0-0.5-0.2-0.7-0.7-0.8c-2.5-0.3-5.1-0.7-7.6-1c-5.1-0.7-10.2-1.4-15.3-2.1   C192.9,223.5,190.9,223.2,188.7,222.9z M195,254.2c1.5,0,2.7-1.2,2.7-2.7s-1.2-2.7-2.7-2.6c-1.4,0-2.6,1.2-2.6,2.6   C192.3,253,193.5,254.2,195,254.2z M214.7,248.9c-1.5,0-2.7,1.2-2.7,2.6c0,1.5,1.2,2.7,2.7,2.7s2.6-1.2,2.7-2.6   C217.3,250.2,216.2,248.9,214.7,248.9z"/>
</g>
<g>
	<path class="st0" d="M459.2,139.9c0-12.4,10.1-22.5,22.5-22.5s22.5,10.1,22.5,22.5s-10.1,22.5-22.5,22.5   C469.3,162.4,459.2,152.3,459.2,139.9z M461.1,139.9c0,11.3,9.2,20.6,20.6,20.6c11.3,0,20.6-9.2,20.6-20.6   c0-11.4-9.2-20.6-20.6-20.6S461.1,128.6,461.1,139.9z"/>
	<path class="st0" d="M475.5,139.2l9.1-9.1c0.4-0.4,1.1-0.4,1.5,0s0.4,1.1,0,1.5l-8.4,8.4l8.4,8.4c0.4,0.4,0.4,1.1,0,1.5   s-1.1,0.4-1.5,0l-9.1-9.1C475.1,140.3,475.1,139.6,475.5,139.2z"/>
</g>
<g>
	<path class="st0" d="M459.2,139.9c0-12.4,10.1-22.5,22.5-22.5s22.5,10.1,22.5,22.5s-10.1,22.5-22.5,22.5   C469.3,162.4,459.2,152.3,459.2,139.9z M461.1,139.9c0,11.3,9.2,20.6,20.6,20.6c11.3,0,20.6-9.2,20.6-20.6   c0-11.4-9.2-20.6-20.6-20.6S461.1,128.6,461.1,139.9z"/>
	<path class="st0" d="M475.5,139.2l9.1-9.1c0.4-0.4,1.1-0.4,1.5,0s0.4,1.1,0,1.5l-8.4,8.4l8.4,8.4c0.4,0.4,0.4,1.1,0,1.5   s-1.1,0.4-1.5,0l-9.1-9.1C475.1,140.3,475.1,139.6,475.5,139.2z"/>
</g>
<g>
	<path class="st0" d="M503.2,235.8c0,12.4-10.1,22.5-22.5,22.5s-22.5-10.1-22.5-22.5s10.1-22.5,22.5-22.5   C493.1,213.3,503.2,223.4,503.2,235.8z M501.3,235.8c0-11.3-9.2-20.6-20.6-20.6c-11.3,0-20.6,9.2-20.6,20.6   c0,11.4,9.2,20.6,20.6,20.6S501.3,247.1,501.3,235.8z"/>
	<path class="st0" d="M486.9,236.5l-9.1,9.1c-0.4,0.4-1.1,0.4-1.5,0s-0.4-1.1,0-1.5l8.4-8.4l-8.4-8.4c-0.4-0.4-0.4-1.1,0-1.5   s1.1-0.4,1.5,0l9.1,9.1C487.3,235.4,487.3,236.1,486.9,236.5z"/>
</g>
<g>
	<path class="st0" d="M503.2,235.8c0,12.4-10.1,22.5-22.5,22.5s-22.5-10.1-22.5-22.5s10.1-22.5,22.5-22.5   C493.1,213.3,503.2,223.4,503.2,235.8z M501.3,235.8c0-11.3-9.2-20.6-20.6-20.6c-11.3,0-20.6,9.2-20.6,20.6   c0,11.4,9.2,20.6,20.6,20.6S501.3,247.1,501.3,235.8z"/>
	<path class="st0" d="M486.9,236.5l-9.1,9.1c-0.4,0.4-1.1,0.4-1.5,0s-0.4-1.1,0-1.5l8.4-8.4l-8.4-8.4c-0.4-0.4-0.4-1.1,0-1.5   s1.1-0.4,1.5,0l9.1,9.1C487.3,235.4,487.3,236.1,486.9,236.5z"/>
</g>
<circle class="st24" cx="480.8" cy="283.7" r="21.7"/>
<g>
	<path class="st0" d="M503.3,283.7c0,12.4-10.1,22.5-22.5,22.5s-22.5-10.1-22.5-22.5s10.1-22.5,22.5-22.5   C493.2,261.2,503.3,271.3,503.3,283.7z M501.4,283.7c0-11.3-9.2-20.6-20.6-20.6c-11.3,0-20.6,9.2-20.6,20.6s9.3,20.6,20.6,20.6   C492.1,304.3,501.4,295,501.4,283.7z"/>
	<path class="st0" d="M486.9,284.5l-9.1,9.1c-0.4,0.4-1.1,0.4-1.5,0s-0.4-1.1,0-1.5l8.4-8.4l-8.4-8.4c-0.4-0.4-0.4-1.1,0-1.5   s1.1-0.4,1.5,0l9.1,9.1C487.3,283.4,487.3,284,486.9,284.5z"/>
</g>
<path class="st6" d="M427.6,194.5l-6.5,5.4c-0.3,0.2-0.8,0.2-1.1,0s-0.3-0.6,0-0.9l6-4.9l-6-4.9c-0.3-0.2-0.3-0.6,0-0.9  c0.3-0.2,0.8-0.2,1.1,0l6.5,5.4C427.9,193.8,427.9,194.2,427.6,194.5z"/>
<g>
	<path class="st25" d="M411.9,238.8v-20c11,0,20,9,20,20s-9,20-20,20V238.8z"/>
</g>
<path class="st6" d="M416.3,238.3l6.5-5.4c0.3-0.2,0.8-0.2,1.1,0s0.3,0.6,0,0.9l-6,4.9l6,4.9c0.3,0.2,0.3,0.6,0,0.9  c-0.3,0.2-0.8,0.2-1.1,0l-6.5-5.4C416,238.9,416,238.6,416.3,238.3z"/>
</svg>